<svg width="153" height="153" viewBox="0 0 153 153" fill="none" xmlns="http://www.w3.org/2000/svg">
<rect width="153" height="153" fill="#D9E6F8"/>
<path d="M40.908 91.978L18.03 78.276C16.914 77.5733 16.356 76.6227 16.356 75.424C16.356 74.3493 16.914 73.4193 18.03 72.634L40.908 58.87C42.024 58.2913 43.0987 58.2913 44.132 58.87C45.1653 59.4073 45.682 60.2753 45.682 61.474C45.682 62.714 45.1653 63.644 44.132 64.264L23.238 76.664V73.998L44.132 86.522C45.1653 87.1833 45.682 88.0927 45.682 89.25C45.682 90.0767 45.4133 90.7793 44.876 91.358C44.38 91.8953 43.76 92.2467 43.016 92.412C42.272 92.536 41.5693 92.3913 40.908 91.978ZM56.5243 75.796C56.5243 73.316 57.1236 71.1047 58.3223 69.162C59.5623 67.178 61.2156 65.6073 63.2823 64.45C65.3489 63.2927 67.6223 62.714 70.1023 62.714C72.5823 62.714 74.4216 63.1273 75.6203 63.954C76.8603 64.7393 77.3356 65.69 77.0463 66.806C76.9223 67.3847 76.6743 67.8393 76.3023 68.17C75.9716 68.4593 75.5789 68.6453 75.1243 68.728C74.6696 68.8107 74.1736 68.79 73.6363 68.666C70.9909 68.1287 68.6143 68.0873 66.5063 68.542C64.3983 68.9967 62.7243 69.844 61.4843 71.084C60.2856 72.324 59.6863 73.8947 59.6863 75.796H56.5243ZM56.5863 97C55.5943 97 54.8296 96.752 54.2923 96.256C53.7549 95.7187 53.4863 94.9333 53.4863 93.9V66.186C53.4863 65.194 53.7549 64.4293 54.2923 63.892C54.8296 63.3547 55.5943 63.086 56.5863 63.086C57.6196 63.086 58.3843 63.3547 58.8803 63.892C59.4176 64.388 59.6863 65.1527 59.6863 66.186V93.9C59.6863 94.892 59.4176 95.6567 58.8803 96.194C58.3843 96.7313 57.6196 97 56.5863 97ZM83.5146 101.588C82.3573 101.588 81.4686 101.113 80.8486 100.162C80.2699 99.2527 80.2079 98.24 80.6626 97.124L99.3246 50.438C99.5726 49.8593 99.9653 49.4047 100.503 49.074C101.04 48.7433 101.619 48.578 102.239 48.578C103.313 48.578 104.161 49.0327 104.781 49.942C105.442 50.81 105.545 51.8433 105.091 53.042L86.4286 99.728C86.1806 100.389 85.7673 100.865 85.1886 101.154C84.6513 101.443 84.0933 101.588 83.5146 101.588ZM114.251 91.978C113.59 92.3913 112.887 92.536 112.143 92.412C111.399 92.2467 110.758 91.8953 110.221 91.358C109.725 90.7793 109.477 90.0767 109.477 89.25C109.477 88.0927 109.994 87.1833 111.027 86.522L131.921 73.998V76.664L111.027 64.264C109.994 63.644 109.477 62.714 109.477 61.474C109.477 60.2753 109.994 59.4073 111.027 58.87C112.06 58.2913 113.135 58.2913 114.251 58.87L137.129 72.634C138.245 73.4193 138.803 74.3493 138.803 75.424C138.803 76.6227 138.245 77.5733 137.129 78.276L114.251 91.978Z" fill="#0068F9"/>
</svg>
