<svg width="81" height="25" viewBox="0 0 81 25" fill="none" xmlns="http://www.w3.org/2000/svg">
<g clip-path="url(#clip0_3097_1695)">
<path d="M60.8913 1.41683V5.28197H67.7783V23.9571H71.1017V5.28508H71.4601C76.384 5.28508 79.8213 4.35273 80.5558 1.70483C80.5828 1.60745 80.6118 1.41993 80.6118 1.41993L60.8913 1.41683Z" fill="#1D3526"/>
<path d="M24.5874 5.60521V23.9592H39.0307V20.0941H27.9107V14.0638H35.497V11.0367H27.9107V5.60624H24.5874V5.60521Z" fill="#1D3526"/>
<path d="M54.5993 16.0911C55.9433 15.4606 57.0723 14.4489 57.8459 13.1819C58.6195 11.9148 59.0036 10.4483 58.9504 8.96477C58.9504 4.80023 56.0383 1.41267 52.458 1.41267H45.5461V1.41785H43.6959V23.9582H47.0193V5.30371H52.458C53.3339 5.43668 54.1331 5.87922 54.7106 6.55103C55.2881 7.22283 55.6057 8.07938 55.6057 8.96529C55.6057 9.85121 55.2881 10.7078 54.7106 11.3796C54.1331 12.0514 53.3339 12.4939 52.458 12.6269H51.6614L54.5278 16.0051L54.5993 16.0911Z" fill="#1D3526"/>
<path d="M54.2812 16.2123L51.2397 12.6279L51.0957 12.7844L48.8093 15.279L52.0384 19.0726C54.9007 22.5161 57.3062 24.5 59.2393 24.5C59.7216 24.5024 60.195 24.3696 60.6057 24.1167C60.68 24.0696 60.7516 24.0184 60.8202 23.9634L54.2812 16.2123Z" fill="#0C6368"/>
<path d="M4.04023 1.41683H0L8.62537 23.5448L10.6973 18.4946C8.30215 12.3576 4.66595 3.03085 4.04023 1.41683Z" fill="#1D3526"/>
<path d="M21.7816 0.5C19.1813 0.5 17.125 3.47629 14.9443 8.86015L14.0119 11.1569C13.8096 11.6458 13.5989 12.161 13.38 12.7025L11.0128 18.5629L8.79382 23.982H12.8796L22.3514 0.579764C22.265 0.551955 22.1767 0.530492 22.0872 0.515539C21.9888 0.504143 21.8852 0.5 21.7816 0.5Z" fill="#0C6368"/>
<path d="M31.0352 5.28507C35.0474 5.28507 39.3933 4.35272 40.1298 1.70482C40.1568 1.60848 40.1858 1.41992 40.1858 1.41992H28.0237L24.5874 5.28507H31.0352Z" fill="#0C6368"/>
</g>
<defs>
<clipPath id="clip0_3097_1695">
<rect width="80.6118" height="24" fill="white" transform="translate(0 0.5)"/>
</clipPath>
</defs>
</svg>
