<?xml version="1.0" ?><svg height="60px" version="1.1" viewBox="0 0 60 60" width="60px"
  xmlns="http://www.w3.org/2000/svg" xmlns:xlink="http://www.w3.org/1999/xlink">
  <title />
  <desc />
  <defs />
  <g fill="none" fill-rule="evenodd" id="People" stroke="none" stroke-width="1">
    <g fill="#000000" id="Icon-12">
      <path
        d="M32,27 L32,22 L28,22 L28,27 L28,30 L32,30 L32,27 Z M34,26 L51,26 C51.552,26 52,26.448 52,27 C52,27.552 51.552,28 51,28 L34,28 L34,30 C34,31.103 33.103,32 32,32 L28,32 C26.897,32 26,31.103 26,30 L26,28 L9,28 C8.448,28 8,27.552 8,27 C8,26.448 8.448,26 9,26 L26,26 L26,22 C26,20.897 26.897,20 28,20 L32,20 C33.103,20 34,20.897 34,22 L34,26 Z M30.03,27 L30.02,27 C29.468,27 29.025,27.448 29.025,28 C29.025,28.552 29.478,29 30.03,29 C30.583,29 31.03,28.552 31.03,28 C31.03,27.448 30.583,27 30.03,27 L30.03,27 Z M13,52 L11,52 C10.448,52 10,52.448 10,53 C10,53.552 10.448,54 11,54 L13,54 C13.552,54 14,53.552 14,53 C14,52.448 13.552,52 13,52 L13,52 Z M13,48 L11,48 C10.448,48 10,48.448 10,49 C10,49.552 10.448,50 11,50 L13,50 C13.552,50 14,49.552 14,49 C14,48.448 13.552,48 13,48 L13,48 Z M19,52 L17,52 C16.448,52 16,52.448 16,53 C16,53.552 16.448,54 17,54 L19,54 C19.552,54 20,53.552 20,53 C20,52.448 19.552,52 19,52 L19,52 Z M19,48 L17,48 C16.448,48 16,48.448 16,49 C16,49.552 16.448,50 17,50 L19,50 C19.552,50 20,49.552 20,49 C20,48.448 19.552,48 19,48 L19,48 Z M25,52 L23,52 C22.448,52 22,52.448 22,53 C22,53.552 22.448,54 23,54 L25,54 C25.552,54 26,53.552 26,53 C26,52.448 25.552,52 25,52 L25,52 Z M25,48 L23,48 C22.448,48 22,48.448 22,49 C22,49.552 22.448,50 23,50 L25,50 C25.552,50 26,49.552 26,49 C26,48.448 25.552,48 25,48 L25,48 Z M31,52 L29,52 C28.448,52 28,52.448 28,53 C28,53.552 28.448,54 29,54 L31,54 C31.552,54 32,53.552 32,53 C32,52.448 31.552,52 31,52 L31,52 Z M31,48 L29,48 C28.448,48 28,48.448 28,49 C28,49.552 28.448,50 29,50 L31,50 C31.552,50 32,49.552 32,49 C32,48.448 31.552,48 31,48 L31,48 Z M37,52 L35,52 C34.448,52 34,52.448 34,53 C34,53.552 34.448,54 35,54 L37,54 C37.552,54 38,53.552 38,53 C38,52.448 37.552,52 37,52 L37,52 Z M37,48 L35,48 C34.448,48 34,48.448 34,49 C34,49.552 34.448,50 35,50 L37,50 C37.552,50 38,49.552 38,49 C38,48.448 37.552,48 37,48 L37,48 Z M43,52 L41,52 C40.448,52 40,52.448 40,53 C40,53.552 40.448,54 41,54 L43,54 C43.552,54 44,53.552 44,53 C44,52.448 43.552,52 43,52 L43,52 Z M43,48 L41,48 C40.448,48 40,48.448 40,49 C40,49.552 40.448,50 41,50 L43,50 C43.552,50 44,49.552 44,49 C44,48.448 43.552,48 43,48 L43,48 Z M49,52 L47,52 C46.448,52 46,52.448 46,53 C46,53.552 46.448,54 47,54 L49,54 C49.552,54 50,53.552 50,53 C50,52.448 49.552,52 49,52 L49,52 Z M49,48 L47,48 C46.448,48 46,48.448 46,49 C46,49.552 46.448,50 47,50 L49,50 C49.552,50 50,49.552 50,49 C50,48.448 49.552,48 49,48 L49,48 Z M22,8 L24,8 L24,5 C24,4.448 24.448,4 25,4 L35,4 C35.552,4 36,4.448 36,5 L36,8 L38,8 L38,3 C38,2.449 37.551,2 37,2 L23,2 C22.449,2 22,2.449 22,3 L22,8 Z M26,8 L34,8 L34,6 L26,6 L26,8 Z M53,10 L8,10 C7.357,10 6.117,10.699 5.994,11.051 L6,40 L54,40 L54,11 C54,10.551 53.449,10 53,10 L53,10 Z M20,8 L20,3 C20,1.346 21.346,0 23,0 L37,0 C38.654,0 40,1.346 40,3 L40,8 L53,8 C54.542,8 56,9.458 56,11 L56,41 C56,41.552 55.552,42 55,42 L5,42 C4.448,42 4,41.552 4,41 L4,11 C4,9.267 6.631,8 8,8 L20,8 Z M55,4 L42.833,4 C42.281,4 41.833,4.448 41.833,5 C41.833,5.552 42.281,6 42.833,6 L55,6 C56.458,6 58,7.542 58,9 L58,55 C58,56.458 56.458,58 55,58 L5,58 C3.542,58 2,56.458 2,55 L2,46 L55,46 C55.552,46 56,45.552 56,45 C56,44.448 55.552,44 55,44 L1,44 C0.448,44 0,44.448 0,45 L0,55 C0,57.57 2.43,60 5,60 L55,60 C57.57,60 60,57.57 60,55 L60,9 C60,6.43 57.57,4 55,4 L55,4 Z M0,41 L0,9 C0,6.43 2.43,4 5,4 L17,4 C17.552,4 18,4.448 18,5 C18,5.552 17.552,6 17,6 L5,6 C3.542,6 2,7.542 2,9 L2,41 C2,41.552 1.552,42 1,42 C0.448,42 0,41.552 0,41 L0,41 Z"
        id="job-laptop" />
    </g>
  </g>
</svg>