<svg viewBox="0 0 128 128" xmlns="http://www.w3.org/2000/svg"> 
	<defs>
		<style>
			g {display: none;}
			g:target {display: inline;}
			.cls-1{fill:#fff;}.cls-2{fill:#e33629;}.cls-3{fill:#f8bd00;}.cls-4{fill:#587dbd;}.cls-5{fill:#319f43;
		</style>
	</defs>
	<g id="react" fill="#61DAFB">
		<path d="M107.3 45.2c-2.2-.8-4.5-1.6-6.9-2.3.6-2.4 1.1-4.8 1.5-7.1 2.1-13.2-.2-22.5-6.6-26.1-1.9-1.1-4-1.6-6.4-1.6-7 0-15.9 5.2-24.9 13.9-9-8.7-17.9-13.9-24.9-13.9-2.4 0-4.5.5-6.4 1.6-6.4 3.7-8.7 13-6.6 26.1.4 2.3.9 4.7 1.5 7.1-2.4.7-4.7 1.4-6.9 2.3-12.5 4.8-19.3 11.4-19.3 18.8s6.9 14 19.3 18.8c2.2.8 4.5 1.6 6.9 2.3-.6 2.4-1.1 4.8-1.5 7.1-2.1 13.2.2 22.5 6.6 26.1 1.9 1.1 4 1.6 6.4 1.6 7.1 0 16-5.2 24.9-13.9 9 8.7 17.9 13.9 24.9 13.9 2.4 0 4.5-.5 6.4-1.6 6.4-3.7 8.7-13 6.6-26.1-.4-2.3-.9-4.7-1.5-7.1 2.4-.7 4.7-1.4 6.9-2.3 12.5-4.8 19.3-11.4 19.3-18.8s-6.8-14-19.3-18.8zm-14.8-30.5c4.1 2.4 5.5 9.8 3.8 20.3-.3 2.1-.8 4.3-1.4 6.6-5.2-1.2-10.7-2-16.5-2.5-3.4-4.8-6.9-9.1-10.4-13 7.4-7.3 14.9-12.3 21-12.3 1.3 0 2.5.3 3.5.9zm-11.2 59.3c-1.8 3.2-3.9 6.4-6.1 9.6-3.7.3-7.4.4-11.2.4-3.9 0-7.6-.1-11.2-.4-2.2-3.2-4.2-6.4-6-9.6-1.9-3.3-3.7-6.7-5.3-10 1.6-3.3 3.4-6.7 5.3-10 1.8-3.2 3.9-6.4 6.1-9.6 3.7-.3 7.4-.4 11.2-.4 3.9 0 7.6.1 11.2.4 2.2 3.2 4.2 6.4 6 9.6 1.9 3.3 3.7 6.7 5.3 10-1.7 3.3-3.4 6.6-5.3 10zm8.3-3.3c1.5 3.5 2.7 6.9 3.8 10.3-3.4.8-7 1.4-10.8 1.9 1.2-1.9 2.5-3.9 3.6-6 1.2-2.1 2.3-4.2 3.4-6.2zm-25.6 27.1c-2.4-2.6-4.7-5.4-6.9-8.3 2.3.1 4.6.2 6.9.2 2.3 0 4.6-.1 6.9-.2-2.2 2.9-4.5 5.7-6.9 8.3zm-18.6-15c-3.8-.5-7.4-1.1-10.8-1.9 1.1-3.3 2.3-6.8 3.8-10.3 1.1 2 2.2 4.1 3.4 6.1 1.2 2.2 2.4 4.1 3.6 6.1zm-7-25.5c-1.5-3.5-2.7-6.9-3.8-10.3 3.4-.8 7-1.4 10.8-1.9-1.2 1.9-2.5 3.9-3.6 6-1.2 2.1-2.3 4.2-3.4 6.2zm25.6-27.1c2.4 2.6 4.7 5.4 6.9 8.3-2.3-.1-4.6-.2-6.9-.2-2.3 0-4.6.1-6.9.2 2.2-2.9 4.5-5.7 6.9-8.3zm22.2 21l-3.6-6c3.8.5 7.4 1.1 10.8 1.9-1.1 3.3-2.3 6.8-3.8 10.3-1.1-2.1-2.2-4.2-3.4-6.2zm-54.5-16.2c-1.7-10.5-.3-17.9 3.8-20.3 1-.6 2.2-.9 3.5-.9 6 0 13.5 4.9 21 12.3-3.5 3.8-7 8.2-10.4 13-5.8.5-11.3 1.4-16.5 2.5-.6-2.3-1-4.5-1.4-6.6zm-24.7 29c0-4.7 5.7-9.7 15.7-13.4 2-.8 4.2-1.5 6.4-2.1 1.6 5 3.6 10.3 6 15.6-2.4 5.3-4.5 10.5-6 15.5-13.8-4-22.1-10-22.1-15.6zm28.5 49.3c-4.1-2.4-5.5-9.8-3.8-20.3.3-2.1.8-4.3 1.4-6.6 5.2 1.2 10.7 2 16.5 2.5 3.4 4.8 6.9 9.1 10.4 13-7.4 7.3-14.9 12.3-21 12.3-1.3 0-2.5-.3-3.5-.9zm60.8-20.3c1.7 10.5.3 17.9-3.8 20.3-1 .6-2.2.9-3.5.9-6 0-13.5-4.9-21-12.3 3.5-3.8 7-8.2 10.4-13 5.8-.5 11.3-1.4 16.5-2.5.6 2.3 1 4.5 1.4 6.6zm9-15.6c-2 .8-4.2 1.5-6.4 2.1-1.6-5-3.6-10.3-6-15.6 2.4-5.3 4.5-10.5 6-15.5 13.8 4 22.1 10 22.1 15.6 0 4.7-5.8 9.7-15.7 13.4z"></path>
	</g>
	<g id="medium">
		<path fill="#00AB6B" d="M19.2,0h89.6C119.4,0,128,8.6,128,19.2v89.6c0,10.6-8.6,19.2-19.2,19.2H19.2C8.6,128,0,119.4,0,108.8V19.2
			C0,8.6,8.6,0,19.2,0z"/>
		<path fill="#fff" d="M86.7,85.4l-1.5,2.4l4.3,2.1l14.8,7.4c0.8,0.4,1.6,0.6,2.3,0.6c1.5,0,2.5-1,2.5-2.6V49.1L86.7,85.4L86.7,85.4z
			 M108.7,38.7C108.7,38.7,108.7,38.7,108.7,38.7l-26-13c-0.3-0.2-0.7-0.2-1-0.2c-0.1,0-0.2-0.1-0.3-0.1c-1,0-2,0.5-2.5,1.4l-1.3,2.1
			L75,33.2L64.8,49.8L75,66.4l2.7,4.4l2.7,4.4l3.2,5.1l25.4-41.1C109,39,108.9,38.8,108.7,38.7L108.7,38.7z M74.9,76.7L61.6,55
			L60,52.4l-1.6-2.6l-1.3-2.2v26.2l17.9,9l2.7,1.3l2.7,1.3L77.6,81L74.9,76.7L74.9,76.7z M27,26.5l-0.8-0.4c-0.5-0.2-0.9-0.3-1.3-0.3
			c-1.1,0-1.9,0.9-1.9,2.3v54.7c0,1.5,1.1,3.2,2.4,3.9l22.3,11.2c0.6,0.3,1.1,0.4,1.6,0.4c1.4,0,2.4-1.1,2.4-2.9V39
			c0-0.1-0.1-0.2-0.2-0.3L27,26.5L27,26.5z"/>
	</g>
	<g id="pinterest">
			<path fill="#BD081C" d="M19.2,0h89.6C119.4,0,128,8.6,128,19.2v89.6c0,10.6-8.6,19.2-19.2,19.2H19.2C8.6,128,0,119.4,0,108.8V19.2
				C0,8.6,8.6,0,19.2,0z"/>
			<path fill="#fff" d="M65,19.9C41.8,19.9,23,38.7,23,62c0,17.8,11.1,33,26.7,39.2c-0.4-3.3-0.7-8.4,0.1-12.1
				c0.8-3.3,4.9-20.9,4.9-20.9s-1.3-2.5-1.3-6.2c0-5.8,3.4-10.2,7.6-10.2c3.6,0,5.3,2.7,5.3,5.9c0,3.6-2.3,9-3.5,14
				c-1,4.2,2.1,7.6,6.2,7.6c7.5,0,13.2-7.9,13.2-19.3c0-10-7.2-17.1-17.6-17.1c-12,0-19,9-19,18.2c0,3.6,1.4,7.5,3.1,9.6
				c0.3,0.4,0.4,0.8,0.3,1.2c-0.3,1.3-1,4.2-1.2,4.8c-0.2,0.8-0.6,0.9-1.4,0.6c-5.2-2.4-8.5-10.1-8.5-16.3c0-13.3,9.6-25.4,27.8-25.4
				c14.6,0,25.9,10.4,25.9,24.3c0,14.5-9.1,26.2-21.9,26.2c-4.3,0-8.3-2.2-9.7-4.8l-2.6,10c-0.9,3.7-3.5,8.3-5.3,11
				c3.9,1.2,8.1,1.9,12.5,1.9c23.2,0,42.1-18.8,42.1-42.1S88.1,20,64.9,20L65,19.9z"/>
	</g>
	<g id="500px">
		<path fill="#0099E5" d="M19.2,0h89.6C119.4,0,128,8.6,128,19.2v89.6c0,10.6-8.6,19.2-19.2,19.2H19.2C8.6,128,0,119.4,0,108.8V19.2
			C0,8.6,8.6,0,19.2,0z"/>
		<path fill="#fff" d="M91.6,91.9C91,91.3,90.5,91,90,90.8c-0.4-0.1-0.8,0-1.2,0.3l-0.3,0.3c-3.1,3.1-6.6,5.5-10.6,7.1
			c-4.1,1.7-8.5,2.6-13,2.6c-4.5,0-8.9-0.9-13-2.6c-4-1.7-7.5-4.1-10.6-7.2c-3.2-3.2-5.6-6.8-7.1-10.6c-1.5-3.7-2-6.6-2.2-7.5l0-0.2
			c-0.2-1.1-1.2-1.2-2.7-0.9c-0.6,0.1-2.4,0.4-2.3,1.7v0.1c0.5,3,1.3,6,2.5,8.8c1.9,4.5,4.7,8.6,8.2,12.2s7.6,6.3,12.2,8.2
			c4.7,2,9.7,3,14.9,3c5.2,0,10.2-1,14.9-3c4.6-1.9,8.7-4.7,12.2-8.2l0.3-0.3c0.4-0.4,0.7-1.2-0.8-2.7 M65,30.9c-4.9,0-10.2,1-14,2.7
			c-0.4,0.2-0.7,0.5-0.7,1c-0.1,0.4,0.1,1,0.4,1.7c0.2,0.6,0.9,2.2,2.1,1.7c3.9-1.5,8.3-2.4,12.3-2.4c4.5,0,8.9,0.9,13,2.6
			c3.3,1.4,6.3,3.4,9.7,6.3c0.2,0.2,0.5,0.3,0.8,0.3c0.7,0,1.3-0.6,1.8-1.3c0.9-1,1.5-1.8,0.6-2.7c-3.2-3.1-6.7-5.3-11-7.2
			c-4.7-2-9.7-3-14.9-3 M58.2,72.7c0,0.6,0.5,1.1,0.8,1.3l0.1,0.1c0.5,0.5,1,0.8,1.5,0.8c0.4,0,0.6-0.2,0.7-0.3
			c0.2-0.2,2.8-2.8,3.1-3.1l2.9,2.9c0.3,0.3,0.6,0.5,0.9,0.5c0.5,0,1-0.3,1.5-0.8c1.3-1.3,0.6-1.9,0.3-2.3l-2.9-2.9l3.1-3.1
			c0.7-0.7,0.1-1.5-0.5-2.1c-0.8-0.8-1.7-1.1-2.2-0.6l-3.1,3.1l-3.1-3.1c-0.2-0.2-0.4-0.2-0.6-0.2c-0.4,0-0.9,0.3-1.4,0.8
			c-0.9,0.9-1.2,1.6-0.6,2.2l3.1,3.1l-3.1,3.1c-0.3,0.3-0.4,0.5-0.4,0.8 M38.9,77.5c0,0.1,0.5,1.3,0.7,1.8c1.4,3.3,3.4,6.3,5.9,8.8
			s5.5,4.5,8.8,5.9c3.4,1.4,7,2.2,10.7,2.2c3.7,0,7.4-0.7,10.7-2.2c3.3-1.4,6.3-3.4,8.8-5.9c2.5-2.5,4.5-5.5,5.9-8.8
			c1.5-3.4,2.2-7,2.2-10.7c0-3.7-0.7-7.3-2.2-10.7c-1.4-3.3-3.4-6.2-5.9-8.8c-2.5-2.5-5.5-4.5-8.7-5.9c-3.4-1.4-7-2.2-10.7-2.2
			s-7.5,0.7-10.8,2.2c-2.7,1.2-7.2,4.1-9.9,6.8v0.1V27.2h38.1c1.4,0,1.4-1.9,1.4-2.6c0-0.6,0-2.6-1.4-2.6H40.9
			c-1.1,0-1.8,0.9-1.8,1.8v31.9c0,1,1.3,1.7,2.5,2c2.3,0.5,2.9-0.3,3.4-1.1l0.1-0.1c0.8-1.3,3.6-4,3.6-4.1c4.2-4.2,9.9-6.6,15.9-6.6
			c6,0,11.7,2.3,15.9,6.6c4.3,4.3,6.6,9.9,6.6,15.9c0,6-2.4,11.7-6.6,15.9c-4.2,4.2-10,6.6-16,6.6c-4.1,0-8-1.1-11.4-3.1V68.3
			c0-2.6,1.1-5.4,3-7.5c2.2-2.4,5.1-3.7,8.3-3.7c3.1,0,6,1.2,8.2,3.3c2.2,2.1,3.3,5,3.3,8c0,6.5-5.1,11.5-11.6,11.5
			c-1.3,0-3.6-0.6-3.6-0.6c-1.3-0.4-1.9,1.4-2.1,2c-0.7,2.3,0.4,2.7,0.6,2.8c2.1,0.6,3.5,0.7,5.3,0.7c9.2,0,16.7-7.5,16.7-16.7
			c0-9.2-7.5-16.6-16.7-16.6c-4.5,0-8.7,1.7-11.9,4.8c-3.1,2.9-4.8,6.9-4.8,10.8v16v-0.1c-1.7-1.9-3.4-4.8-4.6-7.8
			c-0.5-1.2-1.5-0.9-2.8-0.5c-0.6,0.2-2.4,0.7-2.1,2.1L38.9,77.5z"/>
	</g>
	<g id="slideshare">
		<path fill="#0DA8AA" d="M19.2,0h89.6C119.4,0,128,8.6,128,19.2v89.6c0,10.6-8.6,19.2-19.2,19.2H19.2C8.6,128,0,119.4,0,108.8V19.2
			C0,8.6,8.6,0,19.2,0z"/>
		<path fill="#fff" d="M112.5,68.5c-3.8,7.2-11.8,9.5-19.8,13.8V98c0,2.2-2.8,15.2-13.8,15.2s-14.5-6.5-14.5-9V89.5l-3.2-1v15.8
			c0,2.5-4,6.2-9.5,6.2C46.5,110.5,36,103,36,98V80.8c0,0-14.2-5.5-17.8-9.8c-3.2-4-5-5.8-4-8c1-2.5,11.8,6.5,18,8s17.2,2.2,22,2.2
			c4.5-0.2,7.2,1.5,9.8,4l0.5,0.5v-2c0-2.2,6-3,9.5-3h15.8c1.8,0,16.2-4.8,19.5-8.5C112.8,60.5,116,61.5,112.5,68.5z M79.2,67.5
			c6.1,0,11-4.9,11-11s-4.9-11-11-11s-11,4.9-11,11S73.2,67.5,79.2,67.5z M50,67.5c6.1,0,11-4.9,11-11s-4.9-11-11-11s-11,4.9-11,11
			S43.9,67.5,50,67.5L50,67.5z"/>
		<path fill="#fff" d="M30.8,14.8c-7,0-12.5,5.8-12.5,12.5V69h6V27.2c0-3.5,2.8-6.5,6.5-6.5h66.5c3.8,0,6.5,3,6.5,6.5v42.2h6V27.2
			c0-6.8-5.5-12.5-12.5-12.5H30.8z"/>
	</g>
	<g id="skype">
		<path fill="#00AFF0" d="M19.2,0h89.6C119.4,0,128,8.6,128,19.2v89.6c0,10.6-8.6,19.2-19.2,19.2H19.2C8.6,128,0,119.4,0,108.8V19.2
			C0,8.6,8.6,0,19.2,0z"/>
		<path fill="#fff" d="M41.2,14.2C19.5,14.2,7.5,39,17.8,55.8C11.2,91.5,44,116,72.2,110.2c29.8,14.5,50.5-17.5,38-38
			C116.5,36,83.5,12,55.8,17.8C50.5,15.2,45.8,14.2,41.2,14.2z M83.8,44.2c4.2,6.2-4.5,11.2-7.8,7.5c-4.2-5-8.8-7.5-13.5-7.2
			c-12,1-11.5,11-1.2,12.5c14.2,2,27,6,26,18.5C86,89.8,74.5,93.8,62.5,93c-14-1-18.5-6-21.2-11.2c-3.2-6.2,6-12.2,10-5.5
			C57.5,86.5,69,85,72.5,81c5.5-6.2-0.2-10.2-6.2-11.2c-6.8-1.2-13.5-2.8-18.8-5.5C39.2,60,35.8,39,57.5,35.5
			C67.2,34,79,37,83.8,44.2z"/>
	</g>
	<g id="linkedin">
		<path fill="#0077B5" d="M19.2,0h89.6C119.4,0,128,8.6,128,19.2v89.6c0,10.6-8.6,19.2-19.2,19.2H19.2C8.6,128,0,119.4,0,108.8V19.2
			C0,8.6,8.6,0,19.2,0z"/>
		<path fill="#fff" d="M15.2,44.5h21.5V109H15.2V44.5z M26.2,13.5c-7.5,0-12.2,5-12.2,11.2s4.8,11,11.8,11H26c7.5,0,12-4.8,12-11
			S33.5,13.5,26.2,13.5z M89.2,43.2C78,43.2,72.8,49.5,70,53.8v-9H48.5v64.5H70v-36c0-2,0.2-4,0.8-5.2c1.5-4,5-8,11-8
			c7.8,0,10.8,6,10.8,14.8v34.5H114v-37C114,52.2,103.5,43.2,89.2,43.2z"/>
	</g>
	<g id="instagram">
		<path fill="#E4405F" d="M19.4,0h90.3C120.3,0,129,8.7,129,19.4v90.3c0,10.7-8.7,19.4-19.4,19.4H19.4C8.7,129,0,120.3,0,109.7V19.4
			C0,8.7,8.7,0,19.4,0z"/>
		<path fill="#fff" d="M64,38c-13-0.2-25,10.8-25.8,23.8c-1.3,14.2,9.1,26.7,23.2,28.1c11.9,1.1,22.9-6,26.8-17.3
			c4.7-13.6-2.5-28.4-16.1-33.1C69.5,38.5,66.8,38,64,38z M64,80.2c-10,0.5-18.5-10-16.2-19.8c1.8-10,13.5-16.2,22.8-12
			c9,3.5,13,15.8,7.8,23.8C75.2,77.2,69.8,80.3,64,80.2z M96.8,37.5c0.2,5-6.8,7.8-10.2,4c-3.5-3.5-0.8-10.2,4.2-10
			C94,31.5,96.8,34.2,96.8,37.5z"/>
		<path fill="#fff" d="M106,22.2c-6.2-6.8-16-8.8-25-8.2c-13.5,0-27.2-0.2-41,0.2C29.2,14.8,18.8,22,15.5,32.5C13,40.5,14.2,49,14,57
			c0,10.5-0.2,21,0.2,31.5C15,100,23.5,110.2,34.5,113c7.5,1.8,15.5,0.8,23,1c10.5,0,20.8,0.2,31-0.2c11-0.8,21.2-8.2,24-19
			c2.2-8,1.2-16,1.5-24.2c0-10.2,0.2-20.8-0.2-31.2C113.2,33,110.5,26.8,106,22.2z M105.2,84.8c0.2,8.8-5.8,17.5-14.2,19.2
			c-7,1.2-14,0.5-20.8,0.8c-10-0.2-20,0.2-30-0.2C32.2,104,25,98,23.8,90c-1-7-0.2-14.2-0.5-21.5c0.2-9.5-0.2-19,0.2-28.5
			C24,32,30,25,38,23.8c7.2-1,14.8-0.2,22-0.5c9.5,0,19-0.2,28.2,0.2c8.2,0.5,15.5,7.2,16.5,15.5c0.8,7.5,0.2,15.2,0.5,23V84.8z"/>
	</g>
	<g id="github">
		<path fill="#171515" d="M19.2,0h89.6C119.4,0,128,8.6,128,19.2v89.6c0,10.6-8.6,19.2-19.2,19.2H19.2C8.6,128,0,119.4,0,108.8V19.2
			C0,8.6,8.6,0,19.2,0z"/>
		<path fill="#fff" d="M29.8,63.8C34,71.2,42,75.8,55.2,77c-2,1.5-4.2,4.2-4.5,7.5c-2.5,1.5-7.2,2-11,0.8c-5.2-1.8-7.2-12-15.2-10.5
			c-1.8,0.2-1.5,1.5,0,2.5c2.5,1.5,5.2,4,6.5,7.5c3,7.8,9.2,9.8,19.2,8.2v11.2c0,3.5-5,4.5-5,6.2c0,0.8,1.8,0.8,3,0.8
			c2.5,0,8-2.2,8-5.8c0-3,0-13,0.2-14.8c0-3.8,2-5,2-5s0.2,20.5-0.5,23c-1,3.2-2.5,2.8-2.5,4.2c0,2.2,6.5,0.5,8.8-4.2
			C66,105,65.2,85,65,85.2h1.8c0,0,0,9.2,0.2,13.2c0,4.2-0.2,9.8,2.2,12.5c1.8,1.8,7.2,4.8,7.2,2c0-1.5-3-3-3-7.2V86
			c2.5,0,2,6.5,2,6.5l0.2,12c0,0-0.5,4.5,4.8,6.2c2,0.8,6,0.8,6.2-0.2s-5-2.8-5-6.2V92c0-9-1.2-12.2-5.5-15
			c13.2-1.2,21.5-4.5,25.5-13.2c2.5-5,3-11,3-15.5c0-12.5-6-16.8-7.2-19c1.8-9.5-0.2-13.8-1.2-15c-3.5-1.2-12,3-16.5,6
			c-7.5-2.2-23.5-2-29.5,0.5c-11-7.8-16.8-6.5-16.8-6.5s-3.8,6.8-1,16.5c-3.8,4.5-6.2,7.8-6.5,16.2C26,53.8,26.8,58,29.8,63.8z"/>
	</g>
	<g id="facebook">
		<path fill="#3B5998" d="M19.2,0h89.6C119.4,0,128,8.6,128,19.2v89.6c0,10.6-8.6,19.2-19.2,19.2H19.2C8.6,128,0,119.4,0,108.8V19.2
			C0,8.6,8.6,0,19.2,0z"/>
		<path fill="#fff" class="st1" d="M71.8,114V68.5H87l2.2-18H71.8V39.2c0-5.2,1.5-8.8,8.8-8.8H90V14.8c-1.8-0.2-7.2-0.8-13.8-0.8
			c-13.5,0-22.8,8.2-22.8,23.5v13H38v18h15.5V114H71.8z"/>
	</g>
	<g id="email">
		<path fill="#673147" d="M19.2,0h89.6C119.4,0,128,8.6,128,19.2v89.6c0,10.6-8.6,19.2-19.2,19.2H19.2C8.6,128,0,119.4,0,108.8V19.2
			C0,8.6,8.6,0,19.2,0z"/>
		<path fill="#fff" d="M103,27.8H25c-6,0-11,5-11,11.2v50c0,6,5,11,11,11h78c6,0,11-5,11-11V39C114,32.8,109,27.8,103,27.8z M48,68.8
			l9.5,8.2c3.7,3.2,9.1,3.2,12.8,0l9.8-8.2L79.8,69l21.8,21.8h-75L48.2,69L48,68.8z M22.2,86.5V46.2L43.8,65L22.2,86.5z M84.2,65
			l21.5-18.8v40.2L84.2,65z M105.8,37v1.2L66.5,72.5c-1.2,1.2-3.8,1.2-5,0L22.2,38.2V37H105.8z"/>
	</g>
	<g id="soundcloud">
		<path fill="#FF5500" d="M19.2,0h89.6C119.4,0,128,8.6,128,19.2v89.6c0,10.6-8.6,19.2-19.2,19.2H19.2C8.6,128,0,119.4,0,108.8V19.2
			C0,8.6,8.6,0,19.2,0z"/>
		<path fill="#fff" d="M14.8,68.8L14,74.2l0.8,5.5c0,0.5,0.8,0.5,0.8,0l0.8-5.5l-0.8-5.5C15.5,68,14.8,68,14.8,68.8z M19.2,65.2
			c0-0.8-0.8-0.8-0.8,0l-1.2,9l1,8.8c0,0.8,1,0.8,1,0l1-8.8L19.2,65.2z M34,57.8l-0.8,16.5l0.5,10c0,2,1.8,2,1.8,0l1-10l-1-16.5
			C35.5,56.5,34,56.5,34,57.8z M26.2,63.2l-1,11l0.8,10c0,1.5,1.2,1.5,1.2,0l1-10l-1-11C27.2,62.5,26.2,62.5,26.2,63.2z M43.8,84.2
			l0.8-10l-0.8-22c0-1.5-1.8-1.5-1.8,0l-0.8,22l0.5,10C41.8,86.2,43.8,86.2,43.8,84.2z M60.8,84.2l0.5-10l-0.5-25.5
			c0-1.8-2.5-1.8-2.5,0l-0.5,25.5l0.5,10C58.2,86.2,60.8,86.2,60.8,84.2z M52.2,84.2l0.8-10L52.2,52c0-1.5-2.2-1.5-2.2,0l-0.5,22.2
			l0.5,10C50,86.2,52.2,86.2,52.2,84.2z M31.5,84.2l0.8-10L31.5,64c0-0.8-1.5-0.8-1.5,0l-0.8,10.2l0.8,10C30,86,31.5,86,31.5,84.2z
			 M23.2,84.2l1-10l-1-10.8c0-0.8-1-0.8-1,0l-1,10.8l1,10C22.2,85.2,23.2,85.2,23.2,84.2z M54.2,53l-0.5,21.2l0.2,10c0,2,2.5,2,2.5,0
			l0.5-10L56.5,53C56.5,51.2,54.2,51.2,54.2,53z M39.8,84.2l0.8-10L39.8,54c0-1.5-1.8-1.5-1.8,0l-0.8,20.2l0.5,10
			C37.8,86.2,39.8,86.2,39.8,84.2z M48,84.2l0.8-10L48,51.5c0-1.5-2-1.5-2,0l-0.8,22.8l0.8,10C46,86.2,48,86.2,48,84.2z M97,62
			c-1.2-14.2-16-23.5-29.5-18.2c-1,0.5-1.2,0.8-1.2,1.5v39c0,0.8,0.5,1.5,1.2,1.5h34.2c6.8,0,12.2-5.5,12.2-12.2
			C114,64.2,105.2,59.2,97,62z M62.5,46.5l-0.8,27.8l0.8,10c0,2,2.5,2,2.5,0l0.8-10L65,46.5C65,44.8,62.5,44.8,62.5,46.5z"/>
	</g>
	<g id="goodreads">
		<path fill="#663300" d="M19.2,0h89.6C119.4,0,128,8.6,128,19.2v89.6c0,10.6-8.6,19.2-19.2,19.2H19.2C8.6,128,0,119.4,0,108.8V19.2
			C0,8.6,8.6,0,19.2,0z"/>
		<path fill="#fff" d="M88.8,77.3V23.7h-7.1v10.1h-0.2c-0.7-1.6-1.7-3.1-2.9-4.5c-1.2-1.4-2.7-2.7-4.3-3.8c-1.6-1.1-3.3-1.9-5.2-2.5
			c-1.9-0.6-3.9-0.9-6.1-0.9c-4.2,0-8,0.8-11.2,2.3c-3.3,1.5-6,3.7-8.2,6.3c-2.2,2.7-3.9,5.8-5.1,9.4c-1.2,3.6-1.8,7.4-1.8,11.4
			c0,4.1,0.5,8,1.5,11.7c1,3.7,2.5,6.8,4.7,9.5c2.2,2.7,4.9,4.8,8.2,6.3c3.3,1.5,7.3,2.3,12,2.3c4.3,0,8.1-1.1,11.3-3.3
			c3.2-2.2,5.7-5.1,7.3-8.7h0.2v7.9c0,7.1-1.5,12.5-4.4,16.3c-2.9,3.7-7.7,5.7-14.3,5.7c-2,0-3.9-0.2-5.8-0.6c-1.9-0.4-3.6-1.1-5.1-2
			c-1.5-0.9-2.9-2.1-4-3.6c-1.1-1.5-1.8-3.3-2.2-5.5h-7.3c0.2,3.1,1.1,5.7,2.5,8c1.5,2.2,3.3,4.1,5.5,5.5c2.2,1.4,4.7,2.4,7.5,3.1
			c2.8,0.7,5.7,1,8.6,1c4.8,0,8.8-0.7,12.1-1.9c3.3-1.3,5.9-3.1,8-5.6c2.1-2.4,3.5-5.4,4.5-8.8c0.9-3.5,1.5-7.4,1.5-11.6L88.8,77.3z
			 M62.9,75.3c-3.3,0-6.2-0.7-8.6-2c-2.4-1.3-4.4-3.1-6-5.2c-1.6-2.1-2.8-4.6-3.5-7.4c-0.8-2.8-1.1-5.6-1.1-8.6c0-3,0.4-6,1-8.9
			c0.7-2.9,1.9-5.5,3.4-7.7c1.6-2.3,3.6-4.1,6-5.5c2.4-1.4,5.3-2.1,8.7-2.1s6.2,0.7,8.6,2.1c2.3,1.4,4.3,3.3,5.8,5.6
			c1.5,2.3,2.6,4.9,3.3,7.8c0.7,2.9,1,5.7,1,8.6c0,2.9-0.4,5.8-1.2,8.6c-0.8,2.8-2,5.2-3.6,7.4c-1.6,2.1-3.5,3.9-5.9,5.2
			c-2.3,1.3-5,2-8.2,2H62.9z"/>
	</g>
	<g id="twitter">
		<path fill="#1DA1F3" d="M19.2,0h89.6C119.4,0,128,8.6,128,19.2v89.6c0,10.6-8.6,19.2-19.2,19.2H19.2C8.6,128,0,119.4,0,108.8V19.2
			C0,8.6,8.6,0,19.2,0z"/>
		<path fill="#fff" d="M114,33.2c-3.5,1.8-7.8,2.8-11.8,3.2c4.2-2.5,7.5-6.8,9.2-11.5c-3.8,2.5-8.5,4-13,5
			c-15.2-15.5-39.2-1.8-35.2,18.8C46.2,48,31,40,21,27.5c-5.5,9.2-2.8,21.5,6.5,27.2c-3.2,0-6.5-1-9.2-2.2c0,9.8,7,18,16.2,20
			c-3,0.8-6.2,1-9.2,0.5c2.5,8.2,10.2,14.2,19.2,14.2C34,94.8,25.2,96.8,14,95.8c42.5,27.8,94.5-8,89.8-52
			C107.8,41,111.2,37.5,114,33.2z"/>
	</g>
	<g id="html" viewBox="0 0 128 128">
		<path fill="#E44D26" d="M27.854 116.354l-8.043-90.211h88.378l-8.051 90.197-36.192 10.033z"></path>
		<path fill="#F16529" d="M64 118.704l29.244-8.108 6.881-77.076h-36.125z"></path>
		<path fill="#EBEBEB" d="M64 66.978h-14.641l-1.01-11.331h15.651v-11.064h-27.743l.264 2.969 2.72 30.489h24.759zM64 95.711l-.049.013-12.321-3.328-.788-8.823h-11.107l1.55 17.372 22.664 6.292.051-.015z"></path>
		<path d="M28.034 1.627h5.622v5.556h5.144v-5.556h5.623v16.822h-5.623v-5.633h-5.143v5.633h-5.623v-16.822zM51.816 7.206h-4.95v-5.579h15.525v5.579h-4.952v11.243h-5.623v-11.243zM64.855 1.627h5.862l3.607 5.911 3.603-5.911h5.865v16.822h-5.601v-8.338l-3.867 5.981h-.098l-3.87-5.981v8.338h-5.502v-16.822zM86.591 1.627h5.624v11.262h7.907v5.561h-13.531v-16.823z"></path>
		<path fill="#fff" d="M63.962 66.978v11.063h13.624l-1.284 14.349-12.34 3.331v11.51l22.682-6.286.166-1.87 2.6-29.127.27-2.97h-2.982zM63.962 44.583v11.064h26.725l.221-2.487.505-5.608.265-2.969z"></path>
	</g>
	<g id="gulp" viewBox="0 128 128 128">
		<path fill-rule="evenodd" clip-rule="evenodd" fill="#EB4A4B" d="M36.965 35.459c.877 9.232 1.747 18.412 2.637 27.798 1.451-2.495 2.501-4.888 4.085-6.848 1.475-1.826 3.334-3.511 5.357-4.678 2.641-1.524 6.104-.089 6.96 2.614.23.725-.319 1.697-.511 2.556-.646-.341-1.479-.529-1.901-1.051-1.793-2.217-2.873-2.479-4.856-.563-3.699 3.576-5.779 8.056-6.573 13.091-.153.974.456 2.067.713 3.105 1.011-.348 2.185-.476 3.002-1.084 2.656-1.977 4.302-4.666 5.21-7.88.197-.696 1.265-1.145 1.933-1.708.32.658 1.05 1.433.897 1.954-1.407 4.84-2.934 9.649-4.536 14.429-.162.484-1.051.725-1.604 1.079-.223-.636-.692-1.302-.617-1.901.168-1.358.605-2.683.91-3.927l-7.24 3.333c.405 4.622.825 9.807 1.323 14.985.382 3.954 1.029 4.978 4.923 5.728 4.544.875 9.173 1.434 13.792 1.774 6.825.503 13.59-.119 20.23-1.904 2.472-.664 3.458-2.29 3.635-4.717.162-2.235.524-4.456.775-6.685.493-4.391.972-8.783 1.476-13.358-1.667 1.056-2.978 2.238-4.511 2.739-1.116.365-2.524-.169-3.803-.303.245-1.174.23-2.497.796-3.487.922-1.618 2.224-3.021 3.364-4.515l-.491-.591c-.817.483-1.832.8-2.413 1.485-1.182 1.394-2.339 2.886-3.13 4.52-1.324 2.735-2.333 5.622-3.518 8.426-.515 1.216-.959 3.076-2.684 2.366-1.845-.761-.547-2.386-.114-3.542.689-1.844 1.599-3.606 2.215-4.962-1.746.208-3.516.459-5.294.614-.752.064-1.646-.348-2.261-.07-2.045.924-3.341.553-3.766-1.711-.947.615-1.749 1.448-2.694 1.672-1.147.273-2.703.452-3.543-.121-.673-.459-.918-2.184-.688-3.196.457-2.012 1.311-3.946 2.122-5.859.502-1.185 1.007-3.077 2.701-2.253 1.674.813.154 2.185-.232 3.286-.599 1.702-1.209 3.401-1.813 5.101l.96.58c.914-.794 2.053-1.441 2.693-2.415 1.048-1.592 1.681-3.452 2.673-5.086.411-.677 1.296-1.065 1.967-1.584.136.862.462 1.748.354 2.58-.107.841-.698 1.61-.981 2.442-.425 1.246-.768 2.52-1.2 3.969 2.043.078 2.918-.782 3.495-2.299 1.826-4.793 3.672-9.581 5.679-14.3.343-.808 1.509-1.264 2.296-1.884.091.974.525 2.078.216 2.899-1.645 4.349-3.492 8.62-5.228 12.935-.293.727-.387 1.534-.572 2.304 3.059-1.375 5.612-2.895 6.544-6.146.228-.79 1.162-1.377 1.771-2.058l1.416 1.5c.43-.362.824-.774 1.291-1.075 1.47-.947 3.053-1.782 4.603-.315 1.604 1.517.39 2.995-.448 4.307-.912 1.431-2.029 2.73-3.057 4.086 2.312-1.49 5.469-2.158 5.889-5.378 1.024-7.865 1.924-15.746 2.837-23.625.271-2.332.416-4.679.627-7.109-18.21 4.409-36.029 4.436-54.088-.069zM44.781 96.828c.877 2.317 2.209 4.593 2.558 7.011.737 5.147.924 10.372 1.446 15.554.076.755.565 1.792 1.175 2.124 8.98 4.88 18.047 5.726 27.209.389 1.367-.796 1.62-1.847 1.797-3.325.857-7.181-1.051-14.798 3.54-21.56-12.856 3.189-25.403 3.288-37.725-.193zM75.772 36.748c4.362-.421 8.671-1.445 12.985-2.291.813-.159 1.535-.778 2.299-1.185-1.007-.885-1.878-1.311-2.788-1.418-4.53-.535-9.076-.947-13.603-1.508-.684-.085-1.905-.929-1.854-1.083 1.321-3.98 1.256-8.485 4.254-11.839 3.789-4.24 7.617-8.443 11.416-12.648-2.826-3.04-2.864-3.044-5.425-.383-1.448 1.504-2.771 3.15-4.342 4.512-5.813 5.038-9.896 11.005-10.692 18.872-.183 1.805-1.174 2.457-3.069 2.485-6.256.091-12.519.263-18.761.674-3.093.203-6.148.997-9.221 1.523l-.028 1.149c1.923.593 3.809 1.372 5.773 1.749 10.944 2.098 21.991 2.458 33.056 1.391zm-3.496-2.748c-2.477 2-4.524 2-6.501 0h6.501z"></path>
	</g>	
	<g id="grunt" viewBox="0 256 128 128">
		<path fill-rule="evenodd" clip-rule="evenodd" fill="#493310" d="M95.829 88.914c3.585-2.669 5.424-6.045 6.278-10.224 4.158 4.112 5.623 8.948 5.28 14.41-.465 7.407-3.867 12.805-10.891 15.705-.55.228-1.046.827-1.349 1.375-3.292 5.965-8.135 9.74-14.96 10.819-.572.09-1.143.416-1.635.749-8.116 5.477-21.017 5.457-29.175-.038-.535-.361-1.192-.629-1.828-.738-6.137-1.061-10.799-4.298-13.954-9.611-.917-1.546-1.983-2.586-3.641-3.343-11.845-5.406-11.643-22.932-4.233-29.038.723 1.785 1.281 3.66 2.215 5.326.942 1.681 2.256 3.153 3.407 4.717l.564-.154c.195-1.959.455-3.914.568-5.877.159-2.764.28-5.535.288-8.304.01-3.38-1.254-6.012-4.446-7.656-2.337-1.204-4.67-2.537-6.704-4.184-4.972-4.026-4.846-9.453.18-13.347 1.207-.934 1.923-2.001 2.064-3.511.297-3.182.797-6.355-1.482-9.161-.632-.778-.95-1.858-1.252-2.849-1.472-4.817.898-8.657 5.89-9.44 1.439-.226 2.222-.598 2.394-2.273.307-2.985-.334-5.035-3.084-6.473-2.189-1.146-4.63-1.812-7.047-2.725 2.824-4.058 7.024-5.908 11.946-6.205 6.508-.394 11.61 2.577 15.951 7.134.721.756 1.324 1.63 2.083 2.342.375.353.993.645 1.472.606.249-.021.584-.809.624-1.271.326-3.821 2.052-6.905 4.869-9.419.48-.428 1.088-.713 1.649-1.072l1.382 6.472.6-.006c.99-5.185 4.528-7.827 9.161-9.493-.097 1.552-.324 3.006-.239 4.441.083 1.375.488 2.732.803 4.359 2.635-1.838 4.929-3.746 7.934-3.667-.647 2.462-1.35 4.859-1.888 7.293-.276 1.249.069 2.433 1.658 2.4.581-.012 1.298-.465 1.701-.934 3.424-3.979 7.22-7.383 12.502-8.692 6.737-1.67 13.518.59 17.356 5.953-.729.179-1.415.292-2.062.518-1.671.586-3.442 1.015-4.96 1.88-3.216 1.833-3.731 3.565-2.961 7.677.07.371.66.762 1.09.92.683.25 1.452.256 2.155.464 4.107 1.209 6.069 4.611 4.896 8.717-.416 1.456-1.07 2.894-1.876 4.177-2.089 3.325-1.314 6.75-.458 10.14.19.751 1.187 1.348 1.896 1.913 4.33 3.451 4.747 8.714.589 12.396-2.313 2.048-5.117 3.585-7.829 5.126-2.491 1.415-3.956 3.483-3.964 6.208-.021 5.155.295 10.311.473 15.468zm-17.901-8.872l-.02.015c-.014.115.023.21.112.285l.313.75c1.112 2.919 2.178 5.857 3.347 8.752 1.395 3.457.43 3.329 4.852 2.93l3.656-.669c1.913-.037 2.411-.992 2.261-2.854-.366-4.526-.499-9.071-.755-13.607-.327-5.783 1.935-9.909 7.354-12.362 1.968-.891 3.84-2.261 5.368-3.798 2.324-2.339 1.663-5.892-1.174-7.519l-.244 2.003c-2.154-3.37-2.778-6.792-3.341-10.236l-.058-1.837c.088-.109.098-.225.027-.346l.879-6.657.34.05.495 2.085c.711-1.244 1.296-2.104 1.718-3.035 1.656-3.664.166-6.115-3.903-6.062-2.426.031-4.901.391-7.256.988-6.147 1.559-11.187 5.234-16.205 8.906-.501.367-1.026.703-1.54 1.053l-.238-.278 2.604-3.729.641-.748c.088-.057.142-.137.161-.241l9.737-7.8-5.92-3.158-.08.013-.429-.317c-6.837-3.207-14.108-3.861-21.441-2.985-4.021.48-7.921 1.971-11.876 3.005-2.329.905-4.544 1.985-6.054 3.649l9.732 7.91-.004-.016.351.483 2.74 3.949c-3.093-1.732-5.883-3.707-8.754-5.557-4.446-2.864-9.268-4.779-14.585-5.153-2.251-.158-4.912-.428-6.082 1.983-1.211 2.496.439 4.702 1.83 6.753.052.077.214.08.394.141l.225-1.946c.449.953.726 1.895.836 2.856.216 1.886.34 3.783.503 5.676-.367 1.793-.607 3.626-1.137 5.37-.541 1.781-1.366 3.475-2.067 5.208l-.399-.185-.115-1.783c-3.2 1.951-3.384 5.95-.309 8.402 1.858 1.481 3.981 2.67 6.093 3.787 3.973 2.1 5.779 5.461 5.716 9.782-.071 4.974-.372 9.946-.658 14.915-.154 2.674-.234 2.67 2.196 3.238l4.008.685c1.275-.103 2.919 1.074 3.694-.819 1.53-3.735 2.938-7.52 4.396-11.284.063-.09.093-.19.091-.3l.371-.789 1.484-2.832.443.156c-.663 6.637-3.001 12.894-4.993 19.399 11.109 0 21.915.001 32.72-.006.174 0 .347-.083.463-.113l-5.401-20.483.608-.187 2.013 4.064.266.45zm12.658 30.609c-4.079-.202-5.498.998-6.464 5.601 2.658-1.411 4.987-3 6.436-5.625l.056-.138-.028.162zm11.852-23.638c-3.496 7.166-10.123 8.802-17.019 9.588l3.291 6.277-.511 4.114c5.525-.342 10.373-2 13.492-6.758 2.904-4.432 2.777-9.332 1.235-14.321l-.488 1.1zm-77.224-.562c-.02-.116-.022-.324-.064-.333-.126-.026-.383.012-.388.05-.262 2.045-.738 4.098-.703 6.142.122 7.133 3.973 12.004 10.859 13.893 1.583.434 3.245.582 4.938.874l-.625-4.198 3.395-6.311c-7.302-.684-13.935-2.694-17.412-10.117zm57.22 24.912l.394-.725c.587-1.341 1.273-2.649 1.744-4.029 1.516-4.451-.194-6.876-4.903-7.07-.307-.013-.614-.018-.921-.018-9.829-.001-19.658-.011-29.486.014-.972.002-1.965.115-2.911.337-2.918.685-4.064 2.405-3.295 5.288.5 1.877 1.388 3.651 2.102 5.472l.37.678.277.457c1.599 2.067 2.877 4.529 4.854 6.129 6.5 5.262 13.94 5.696 21.585 3.03 4.715-1.645 8.111-4.97 10.191-9.562l-.001-.001zm19.333-99.527c-7.302-3.192-14.822-.398-19.156 7.122l2.544 1.235c3.333-4.952 7.951-8.023 13.699-7.434.815.084 1.701-.518 2.913-.923zm-75.06.311c1.085.205 2.172.595 3.255.581 3.265-.044 6.236.738 8.7 2.911 1.542 1.359 2.908 2.918 4.429 4.466l2.321-1.191c-3.911-7.178-11.964-10.332-18.705-6.767zm69.116 3.548c-.308.048-.834.085-1.335.219-2.59.693-4.169 2.517-5.121 4.884-.291.723-.451 1.907-.063 2.41.805 1.044 1.511 2.477 3.513 1.8 1.343-.454 1.697-1.23 1.884-2.352.369-2.214.716-4.432 1.122-6.961zm-63.702.101c.3 1.698.586 3.301.865 4.904.146.843.263 1.69.422 2.53.334 1.752 2.019 2.214 3.07 1.862 1.105-.37 2.492-1.801 2.598-2.883.287-2.925-3.853-6.43-6.955-6.413zm5.201 94.87c1.622 2.41 3.773 4.262 6.916 5.677-1.702-3.114-2.233-6.847-6.916-5.677z"></path><path fill-rule="evenodd" clip-rule="evenodd" fill="#F5A900" d="M28.444 43.369c-.163-1.894-.287-3.79-.503-5.676-.11-.961-.387-1.903-.836-2.856l-.225 1.946c-.18-.061-.342-.063-.394-.141-1.391-2.051-3.041-4.257-1.83-6.753 1.17-2.411 3.831-2.141 6.082-1.983 5.317.375 10.14 2.29 14.585 5.153 2.871 1.85 5.661 3.825 8.754 5.557l-2.74-3.949-.351-.482.005.016c-.604-1.435-1.105-2.923-1.833-4.292-1.216-2.289-2.946-4.406-1.846-7.268 3.955-1.035 7.855-2.525 11.876-3.005 7.333-.876 14.604-.222 21.441 2.986l.429.316.078-.012c.088 2.524-.88 4.675-2.152 6.797-.758 1.265-1.122 2.765-1.663 4.16-.019.104-.073.184-.16.242l-.642.747-2.604 3.729.238.278c.514-.35 1.039-.686 1.54-1.053 5.018-3.672 10.057-7.348 16.205-8.906 2.355-.597 4.831-.957 7.256-.988 4.069-.053 5.559 2.398 3.903 6.062-.422.932-1.007 1.792-1.718 3.035l-.495-2.085-.34-.05-.879 6.657-.083.102.055.245.058 1.837c-.195.523-.557 1.045-.561 1.569-.037 4.258.342 8.422 3.608 12.165-2.589 1.316-4.879 2.583-7.255 3.66-2.155.978-4.393 1.852-5.167 4.333-.642 2.06-1.01 4.205-1.496 6.294l-1.197-3.32c-.349 8.095.021 16.019 2.597 23.672l-3.656.669c-2.442-3.714-4.877-7.432-7.341-11.131-.173-.259-.566-.371-.857-.551l-.313-.75.157-.222-.269-.063.021-.015-.268-.448-2.013-4.064-.608.187c1.799 6.82 3.597 13.641 5.401 20.483-.116.03-.29.113-.463.113-10.805.007-21.61.006-32.72.006 1.991-6.506 4.33-12.762 4.993-19.399l-.443-.156-1.485 2.832-.371.789c.002.11-.028.209-.09.3-.36.287-.819.508-1.065.872-1.8 2.671-3.582 5.356-5.316 8.071-.643 1.007-1.144 2.104-1.709 3.16l-4.008-.685c2.695-7.634 3.03-15.542 2.673-23.542l-1.268 3.312c-.271-5.412-1.882-9.494-7.597-11.164-2.179-.637-4.073-2.247-5.643-3.151.979-2.485 2.092-4.329 2.383-6.296.386-2.583.121-5.261.135-7.896zm41.428.407l.371-.383.904-1.048c-2.348.23-4.634.638-6.918.626-2.304-.013-4.607-.443-6.91-.689l-.48-.134.48.133.736 1.479c4.106 4.667 7.536 4.76 11.666.313.08-.086.119-.21.177-.316l-.026.019zm-22.901 24.735l4.404-2.722c.989-1.944 2.169-3.822 2.882-5.862.34-.975.525-1.511 1.586-1.79 2.329-.61 3.526-2.182 3.467-4.209l-2.333.285c-2.496-1.417-4.387-3.386-5.922-5.834-.854-1.362-2.183-2.476-3.443-3.527-2.685-2.24-6.047-2.75-9.332-2.82-2.018-.042-4.057.918-6.086 1.428-.062.061-.13.067-.204.023l-.535.228-.103.15c-.009.05.017.146.05.158.73.259 1.463.51 2.324.808-1.957 2.457-1.711 4.791-.216 7.343l.776-2.733.374.035.189 1.932.247.857.144.573c-.203 6.192 5.334 10.651 13.567 10.499l-1.831 5.184-.084.149.079-.155zm33.995-.001l.146.088-.152-.082-1.766-5.241c9.595.948 13.532-5.575 13.878-11.533l.379-2.249.312.012.72 2.677c1.45-2.578 1.823-4.927-.206-7.306l2.408-.946-1.002-.393c-.49-.298-.959-.81-1.472-.857-2.212-.208-4.447-.479-6.653-.357-4.382.242-7.989 2.152-10.46 5.846-1.643 2.456-3.413 4.716-6.137 6.043l-2.523-.286c.403 2.402 1.772 3.651 3.877 4.317.498.158 1.002.693 1.247 1.184 1.052 2.096 2.009 4.24 3 6.367l4.404 2.716z"></path><path fill-rule="evenodd" clip-rule="evenodd" fill="#F5A800" d="M45.156 110.632c-.714-1.82-1.602-3.594-2.102-5.472-.769-2.883.377-4.603 3.295-5.288.946-.222 1.939-.335 2.911-.337 9.829-.024 19.658-.015 29.486-.014.307 0 .615.005.921.018 4.709.193 6.419 2.619 4.903 7.07-.47 1.38-1.156 2.688-1.744 4.029l-.394.725-.001.002c-1.271.826-2.508 1.711-3.82 2.466-3.299 1.893-6.894 2.751-10.66 3.203-5.151.619-10.176.227-14.996-1.621-2.485-.953-4.775-2.415-7.153-3.646l-.277-.457-.369-.678zm35.398-2.974l.405-.728c1.126-2.9.622-3.686-2.443-3.722-2.276-.025-4.554-.044-6.83.006-2.209.048-2.7.762-2.111 2.877.266 1.104.379 2.277.83 3.3 1.147 2.607 3.221 4.062 5.057 3.755 2.499-.417 4.74-2.834 5.103-5.503l-.011.015zm-33.181-.002l-.005-.009c.417 2.772 2.093 4.478 4.67 5.313 1.817.588 3.416-.232 4.299-1.65.964-1.549 1.394-3.43 2.057-5.167.632-2.164.186-2.856-2.014-2.921-1.965-.059-3.933-.028-5.9-.012-4.222.033-4.304.135-3.49 4.065l.383.381z"></path><path fill-rule="evenodd" clip-rule="evenodd" fill="#E08700" d="M28.444 43.369c-.014 2.635.251 5.313-.132 7.893-.292 1.967-1.405 3.811-2.383 6.296 1.57.904 3.464 2.514 5.643 3.151 5.714 1.67 7.326 5.752 7.597 11.164l1.268-3.312c.356 8 .021 15.907-2.673 23.542-2.43-.567-2.35-.563-2.196-3.238.287-4.968.587-9.941.658-14.915.063-4.321-1.743-7.682-5.716-9.782-2.112-1.116-4.234-2.305-6.093-3.787-3.075-2.453-2.891-6.451.309-8.402l.115 1.783.399.185c.701-1.732 1.526-3.427 2.067-5.208.53-1.744.77-3.576 1.137-5.37zM90.187 92.106c-2.576-7.654-2.946-15.578-2.597-23.672l1.197 3.32c.485-2.09.854-4.235 1.496-6.294.774-2.48 3.012-3.355 5.167-4.333 2.375-1.077 4.666-2.343 7.255-3.66-3.266-3.743-3.645-7.907-3.608-12.165.004-.524.366-1.046.561-1.569.563 3.444 1.187 6.867 3.341 10.236l.244-2.003c2.836 1.627 3.498 5.18 1.174 7.519-1.527 1.538-3.399 2.907-5.368 3.798-5.42 2.453-7.682 6.579-7.354 12.362.256 4.536.389 9.081.755 13.607.148 1.862-.35 2.817-2.263 2.854zm13.132-37.907l-.051.098.077.01-.026-.108z"></path><path fill-rule="evenodd" clip-rule="evenodd" fill="#E08600" d="M45.804 111.767c2.378 1.231 4.668 2.693 7.153 3.646 4.819 1.848 9.845 2.24 14.996 1.621 3.766-.452 7.361-1.31 10.66-3.203 1.313-.754 2.549-1.64 3.82-2.466-2.08 4.592-5.476 7.917-10.191 9.562-7.645 2.666-15.085 2.231-21.585-3.03-1.976-1.601-3.255-4.063-4.853-6.13z"></path><path fill-rule="evenodd" clip-rule="evenodd" fill="#fff" d="M25.214 86.451c3.478 7.423 10.11 9.433 17.412 10.118l-3.395 6.311c-8.735-.714-14.363-7.31-14.017-16.429zM88.71 102.879c-1.089-2.079-2.178-4.156-3.291-6.277 6.896-.787 13.523-2.423 17.019-9.588.11.454.329.911.313 1.361-.258 7.505-5.405 13.825-14.041 14.504z"></path><path fill-rule="evenodd" clip-rule="evenodd" fill="#C7C6C6" d="M25.214 86.451c-.346 9.119 5.282 15.714 14.017 16.428l.625 4.198c-1.694-.292-3.355-.44-4.938-.874-6.886-1.888-10.737-6.76-10.859-13.893-.035-2.043.441-4.096.703-6.142.005-.039.262-.077.388-.05.042.009.044.217.064.333zM88.71 102.879c8.636-.679 13.783-6.999 14.042-14.505.016-.45-.204-.907-.313-1.361l.488-1.1c1.542 4.989 1.669 9.889-1.235 14.321-3.119 4.759-7.967 6.416-13.492 6.758l.51-4.113z"></path><path fill-rule="evenodd" clip-rule="evenodd" fill="#F0A500" d="M101.767 11.836c-1.212.405-2.098 1.007-2.913.923-5.748-.589-10.365 2.482-13.699 7.434l-2.544-1.235c4.334-7.52 11.854-10.314 19.156-7.122zM26.707 12.147c6.741-3.565 14.794-.411 18.705 6.766l-2.321 1.191c-1.521-1.548-2.888-3.106-4.429-4.466-2.464-2.172-5.435-2.955-8.7-2.911-1.083.015-2.17-.375-3.255-.58z"></path><path fill-rule="evenodd" clip-rule="evenodd" fill="#DE8500" d="M95.823 15.695c-.407 2.529-.753 4.747-1.122 6.961-.187 1.122-.541 1.898-1.884 2.352-2.001.677-2.708-.756-3.513-1.8-.388-.503-.229-1.687.063-2.41.951-2.367 2.53-4.191 5.121-4.884.501-.134 1.027-.171 1.335-.219zM32.121 15.796c3.102-.017 7.242 3.487 6.955 6.414-.106 1.082-1.493 2.513-2.598 2.883-1.051.352-2.736-.11-3.07-1.862-.159-.84-.276-1.688-.422-2.53-.279-1.604-.565-3.207-.865-4.905z"></path><path fill-rule="evenodd" clip-rule="evenodd" fill="#E08600" d="M47.313 22.641c-1.1 2.862.63 4.979 1.846 7.268.727 1.369 1.229 2.856 1.833 4.292-3.203-2.603-6.406-5.206-9.732-7.91 1.508-1.665 3.723-2.745 6.053-3.65z"></path><path fill-rule="evenodd" clip-rule="evenodd" fill="#DE8600" d="M77.321 33.883c.541-1.395.905-2.895 1.663-4.16 1.272-2.123 2.24-4.273 2.152-6.797 2.001 1.065 4 2.131 5.922 3.157-3.488 2.793-6.612 5.297-9.737 7.8zM78.333 81.093c.291.18.684.292.857.551 2.464 3.699 4.899 7.417 7.341 11.131-4.422.399-3.457.527-4.852-2.93-1.168-2.895-2.234-5.833-3.346-8.752zM41.771 92.787c.566-1.056 1.066-2.153 1.709-3.16 1.734-2.714 3.516-5.399 5.316-8.071.246-.364.705-.585 1.065-.872-1.459 3.764-2.867 7.549-4.396 11.284-.775 1.893-2.419.716-3.694.819z"></path><path fill-rule="evenodd" clip-rule="evenodd" fill="#ECA200" d="M37.322 110.666c4.683-1.17 5.214 2.563 6.916 5.677-3.143-1.416-5.295-3.267-6.916-5.677zM90.558 110.627c-1.449 2.624-3.778 4.214-6.436 5.625.967-4.603 2.386-5.803 6.464-5.601l-.028-.024zM90.586 110.651l.027-.163-.056.139.029.024z"></path><path fill-rule="evenodd" clip-rule="evenodd" fill="#DE8600" d="M77.908 80.057l.269.063-.157.222c-.089-.074-.126-.17-.112-.285z"></path><path fill-rule="evenodd" clip-rule="evenodd" fill="#E08700" d="M99.599 41.896l-.055-.245.083-.102c.07.122.061.237-.028.347z"></path><path fill-rule="evenodd" clip-rule="evenodd" fill="#49330E" d="M76.563 65.794c-.991-2.126-1.948-4.271-3-6.367-.245-.49-.749-1.026-1.247-1.184-2.105-.667-3.474-1.916-3.877-4.317l2.523.286c.474.033.958.147 1.419.085 2.207-.299 3.714-1.697 5.181-3.243 4.916-5.184 10.683-8.387 18.124-7.516l1.002.393-2.408.946c2.028 2.379 1.656 4.728.206 7.306l-.72-2.677-.312-.012-.379 2.25c-1.058 2.485-2.065 4.994-4.646 6.388-3.756 2.028-7.527 2.915-11.326.22-1.623 2.466-.664 4.981-.54 7.442zm12.433-13.94v-4.628c-3.894 2.292-7.218 4.52-9.882 7.614l-1.099 1.328c3.718 2.788 10.989.954 10.981-4.314z"></path><path fill-rule="evenodd" clip-rule="evenodd" fill="#49330F" d="M35.239 52.833l-.144-.573-.247-.857-.189-1.932-.374-.035-.776 2.733c-1.495-2.552-1.741-4.886.216-7.343-.861-.297-1.594-.548-2.324-.808-.033-.012-.06-.108-.05-.158l.103-.15.535-.228c.073.044.142.038.204-.023 2.786.306 5.659.286 8.339.993 4.209 1.111 7.459 3.9 10.367 7.081 1.617 1.768 3.475 3.095 6.077 2.679l2.333-.285c.059 2.028-1.138 3.599-3.467 4.209-1.061.279-1.246.815-1.586 1.79-.713 2.041-1.893 3.918-2.882 5.861.247-2.49 1.094-5.026-.542-7.473-1.98 1.479-4.139 2.021-6.474 1.602-4.258-.766-7.411-3.006-9.119-7.083zm13.612 1.973c-2.666-3.085-5.982-5.317-9.872-7.583v4.625c.062 5.38 7.409 7.086 10.925 4.365-.105-.193-.193-.416-.334-.597-.221-.285-.478-.542-.719-.81z"></path><path fill-rule="evenodd" clip-rule="evenodd" fill="#E08700" d="M76.563 65.794c-.124-2.462-1.083-4.976.539-7.443 3.799 2.694 7.57 1.808 11.326-.22 2.581-1.395 3.588-3.903 4.646-6.388-.346 5.957-4.284 12.48-13.878 11.532l1.766 5.241.005-.006-4.404-2.716zM35.239 52.833c1.708 4.077 4.86 6.317 9.12 7.083 2.335.42 4.494-.123 6.474-1.602 1.635 2.447.788 4.983.542 7.473l-4.404 2.724.005.005 1.831-5.184c-8.233.152-13.771-4.307-13.568-10.499z"></path><path fill-rule="evenodd" clip-rule="evenodd" fill="#DE8600" d="M56.977 54.212c-2.602.416-4.46-.911-6.077-2.679-2.908-3.181-6.158-5.97-10.367-7.081-2.68-.708-5.553-.688-8.339-.993 2.029-.51 4.068-1.471 6.085-1.428 3.285.07 6.647.58 9.332 2.82 1.261 1.051 2.589 2.165 3.443 3.527 1.536 2.448 3.427 4.417 5.923 5.834z"></path><path fill-rule="evenodd" clip-rule="evenodd" fill="#DF8600" d="M95.684 43.538c-7.44-.871-13.208 2.332-18.124 7.516-1.466 1.546-2.974 2.944-5.181 3.243-.461.063-.945-.052-1.419-.085 2.724-1.327 4.495-3.587 6.137-6.043 2.471-3.694 6.078-5.604 10.46-5.846 2.207-.122 4.441.15 6.653.357.515.049.984.56 1.474.858zM58.054 43.76l-.736-1.479v.001c2.303.247 4.605.676 6.91.689 2.284.012 4.57-.396 6.918-.626l-.903 1.048-.371.383.025-.021c-2.306.388-4.606 1.02-6.921 1.08-1.63.044-3.281-.689-4.922-1.075z"></path><path fill-rule="evenodd" clip-rule="evenodd" fill="#52380B" d="M58.054 43.76c1.641.387 3.292 1.119 4.921 1.076 2.315-.061 4.615-.692 6.921-1.08-.058.106-.097.23-.177.316-4.129 4.448-7.558 4.355-11.665-.312z"></path><path fill-rule="evenodd" clip-rule="evenodd" fill="#47310D" d="M69.575 106.091c-.589-2.115-.098-2.829 2.111-2.877 2.276-.05 4.554-.031 6.83-.006 3.065.036 3.57.822 2.443 3.722l-.405.728.01-.015c-.532.576-1.049 1.167-1.6 1.726-2.498 2.536-5.238 2.372-7.4-.459-.697-.913-1.328-1.877-1.989-2.819z"></path><path fill-rule="evenodd" clip-rule="evenodd" fill="#47310E" d="M46.99 107.274c-.814-3.931-.732-4.033 3.49-4.065 1.967-.016 3.935-.047 5.9.012 2.2.065 2.646.758 2.014 2.921-.746 1.048-1.454 2.126-2.246 3.139-1.853 2.369-4.484 2.518-6.695.41-.704-.671-1.391-1.363-2.086-2.044l.004.009-.381-.382z"></path><path fill-rule="evenodd" clip-rule="evenodd" fill="#DC8400" d="M47.368 107.647c.695.682 1.382 1.373 2.086 2.044 2.211 2.107 4.842 1.959 6.695-.41.792-1.013 1.5-2.091 2.246-3.139-.663 1.737-1.092 3.618-2.057 5.167-.884 1.418-2.482 2.238-4.299 1.65-2.578-.834-4.254-2.54-4.671-5.312z"></path><path fill-rule="evenodd" clip-rule="evenodd" fill="#DE8500" d="M69.575 106.091c.661.941 1.292 1.905 1.989 2.819 2.162 2.831 4.902 2.995 7.4.459.551-.559 1.067-1.15 1.6-1.726-.363 2.669-2.604 5.086-5.103 5.503-1.835.307-3.91-1.148-5.057-3.755-.449-1.023-.563-2.196-.829-3.3z"></path><path fill-rule="evenodd" clip-rule="evenodd" fill="#493310" d="M103.319 54.199l.026.108-.077-.01z"></path><path fill-rule="evenodd" clip-rule="evenodd" fill="#fff" d="M79.114 54.841c2.664-3.095 5.989-5.323 9.882-7.614v4.628c-1.606 2.047-3.421 3.875-6.217 3.872-1.222-.003-2.444-.574-3.665-.886z"></path><path fill-rule="evenodd" clip-rule="evenodd" fill="#C5C4C3" d="M79.114 54.841c1.222.312 2.443.883 3.665.885 2.796.004 4.611-1.824 6.217-3.872.008 5.268-7.263 7.102-10.981 4.314l1.099-1.327z"></path><path fill-rule="evenodd" clip-rule="evenodd" fill="#fff" d="M38.979 51.847v-4.625c3.889 2.267 7.206 4.498 9.872 7.583-1.536 1.385-4.652 1.428-6.902-.117-1.115-.765-1.988-1.883-2.97-2.841z"></path><path fill-rule="evenodd" clip-rule="evenodd" fill="#C5C4C3" d="M38.979 51.847c.982.958 1.855 2.077 2.97 2.842 2.25 1.545 5.366 1.502 6.902.117.242.269.499.525.719.81.141.181.229.403.334.597-3.516 2.72-10.863 1.014-10.925-4.366z"></path>
	</g>
	<g id="css" viewBox="0 512 128 128">
		<path fill="#1572B6" d="M18.814 114.123l-10.054-112.771h110.48l-10.064 112.754-45.243 12.543-45.119-12.526z"></path><path fill="#33A9DC" d="M64.001 117.062l36.559-10.136 8.601-96.354h-45.16v106.49z"></path><path fill="#fff" d="M64.001 51.429h18.302l1.264-14.163h-19.566v-13.831h34.681999999999995l-.332 3.711-3.4 38.114h-30.95v-13.831z"></path><path fill="#EBEBEB" d="M64.083 87.349l-.061.018-15.403-4.159-.985-11.031h-13.882l1.937 21.717 28.331 7.863.063-.018v-14.39z"></path><path fill="#fff" d="M81.127 64.675l-1.666 18.522-15.426 4.164v14.39l28.354-7.858.208-2.337 2.406-26.881h-13.876z"></path><path fill="#EBEBEB" d="M64.048 23.435v13.831000000000001h-33.407999999999994l-.277-3.108-.63-7.012-.331-3.711h34.646zM64.001 51.431v13.831000000000001h-15.209l-.277-3.108-.631-7.012-.33-3.711h16.447z"></path>
	</g>
	<g id="javascript" viewBox="0 0 128 128">
		<path fill="#F0DB4F" d="M1.408 1.408h125.184v125.185h-125.184z"></path><path fill="#323330" d="M116.347 96.736c-.917-5.711-4.641-10.508-15.672-14.981-3.832-1.761-8.104-3.022-9.377-5.926-.452-1.69-.512-2.642-.226-3.665.821-3.32 4.784-4.355 7.925-3.403 2.023.678 3.938 2.237 5.093 4.724 5.402-3.498 5.391-3.475 9.163-5.879-1.381-2.141-2.118-3.129-3.022-4.045-3.249-3.629-7.676-5.498-14.756-5.355l-3.688.477c-3.534.893-6.902 2.748-8.877 5.235-5.926 6.724-4.236 18.492 2.975 23.335 7.104 5.332 17.54 6.545 18.873 11.531 1.297 6.104-4.486 8.08-10.234 7.378-4.236-.881-6.592-3.034-9.139-6.949-4.688 2.713-4.688 2.713-9.508 5.485 1.143 2.499 2.344 3.63 4.26 5.795 9.068 9.198 31.76 8.746 35.83-5.176.165-.478 1.261-3.666.38-8.581zm-46.885-37.793h-11.709l-.048 30.272c0 6.438.333 12.34-.714 14.149-1.713 3.558-6.152 3.117-8.175 2.427-2.059-1.012-3.106-2.451-4.319-4.485-.333-.584-.583-1.036-.667-1.071l-9.52 5.83c1.583 3.249 3.915 6.069 6.902 7.901 4.462 2.678 10.459 3.499 16.731 2.059 4.082-1.189 7.604-3.652 9.448-7.401 2.666-4.915 2.094-10.864 2.07-17.444.06-10.735.001-21.468.001-32.237z"></path>
	</g>
	<g id="laravel" viewBox="0 0 128 128">
		<path fill-rule="evenodd" clip-rule="evenodd" fill="#FD4F31" d="M16.934 1.719c-1.127.088-2.234.074-3.325.373-2.387.655-4.508 1.702-6.379 3.316-1.1.948-2.06 1.97-2.875 3.174-1.258 1.859-2.115 3.857-2.545 6.106.172.301.353.617.545.938 1.219 2.038 2.439 4.062 3.661 6.098l3.212 5.341c.988 1.646 1.974 3.293 2.96 4.939l4.608 7.688c1.047 1.748 2.095 3.497 3.143 5.244 1.527 2.545 3.058 5.088 4.583 7.634l5.609 9.371c1.617 2.699 3.237 5.396 4.857 8.093l.216.314c.235.075.422.011.616-.035 2.134-.512 4.268-1.021 6.402-1.531 3.461-.827 6.922-1.651 10.383-2.479l5.421-1.297c3.499-.836 6.999-1.67 10.498-2.508 3.537-.846 7.073-1.696 10.611-2.543 1.788-.429 3.576-.856 5.365-1.283 3.461-.826 6.922-1.65 10.383-2.474l11.308-2.693.611-.165-.167-.331-3.086-4.362-3.048-4.315-3.26-4.604-3.116-4.413-3.088-4.361-3.188-4.507c-1.041-1.47-2.084-2.938-3.126-4.407l-1.647-2.326c-.252-.357-.453-.742-.587-1.159-.326-1.011.046-1.684.636-2.181.382-.323.822-.56 1.298-.7.663-.195 1.332-.382 2.01-.51 1.359-.257 2.727-.475 4.091-.702l4.624-.754c.975-.161 1.949-.33 2.924-.495 1.325-.224 2.65-.449 3.976-.67 1.287-.216 2.574-.43 3.861-.642l4.213-.689 2.924-.491c1.112-.186 2.223-.371 3.334-.553 1.386-.226 2.771-.454 4.157-.671.826-.129 1.652-.174 2.472.062.615.177 1.175.465 1.696.833l.721.503c.072-.166-.032-.256-.08-.351-1.04-2.105-2.458-3.915-4.26-5.422-1.675-1.402-3.556-2.433-5.636-3.09-1.229-.389-2.492-.208-3.778-.305M55.689 127c-.062 0-.117-.45-.187-.569-1.5-2.56-3.016-5.308-4.498-7.877-1.867-3.238-3.717-6.486-5.557-9.74-1.965-3.478-3.913-6.966-5.863-10.452-1.854-3.314-3.702-6.631-5.549-9.948-1.115-2.005-2.223-4.014-3.337-6.02l-.296-.459-.542.107c-1.072.277-2.142.556-3.212.838-1.49.392-2.979.791-4.47 1.18-3.347.871-6.694 1.737-10.041 2.605-3.404.884-6.951 1.77-10.356 2.65-.207.053.219.071-.781.106v21.145c.412.656.373.347.399.563.079.626.207 1.257.317 1.877.412 2.31 1.339 4.425 2.679 6.351 1.965 2.826 4.582 4.846 7.788 6.082 1.145.44 2.34.75 3.562.9l1.241.328"></path><path fill-rule="evenodd" clip-rule="evenodd" fill="#FD4F31" d="M4.976 77.742c3.939-.937 7.879-1.873 11.818-2.808 1.73-.41 3.461-.815 5.191-1.227.865-.206 1.732-.402 2.59-.634.764-.206.858-.459.465-1.148-.568-.996-1.146-1.986-1.721-2.979l-5.064-8.72-5.062-8.721c-1.717-2.958-3.436-5.916-5.154-8.873-1.471-2.53-2.942-5.06-4.412-7.59-.636-1.094-1.408-2.191-2.047-3.284-.119-.199.42-.437-.58-.543v47.396c0-.032.453-.059.606-.096l3.37-.773zM126.224 111.62c-1.544.549-3.089 1.102-4.632 1.655-3.515 1.26-7.03 2.52-10.545 3.781-1.953.701-3.902 1.41-5.856 2.108-3.982 1.421-7.966 2.837-11.949 4.255-2.308.822-4.617 1.838-6.924 2.664-.632.227-1.255.917-1.881.917h26.49l.57-.327c.674-.029 1.337-.229 1.999-.35 2.719-.497 5.154-1.673 7.311-3.392 1.657-1.321 3.005-2.936 4.061-4.778 1.086-1.896 1.731-3.947 2.041-6.101.027-.186.085-.397-.071-.589-.22-.017-.414.086-.614.157zM123.949 76.049c-1.168-1.598-2.339-3.193-3.505-4.792-1.609-2.207-3.215-4.416-4.822-6.624-.653-.896-1.315-1.785-1.952-2.691-.192-.273-.411-.346-.71-.265l-.171.049c-2.958.719-5.917 1.436-8.876 2.153l-5.302 1.287c-3.457.839-6.915 1.679-10.372 2.519-3.419.831-6.838 1.663-10.258 2.492l-10.662 2.582c-3.497.849-6.992 1.701-10.488 2.551l-10.142 2.462c-1.787.434-3.574.866-5.359 1.302-.263.064-.546.08-.826.292l.239.455c1.497 2.586 2.994 5.171 4.495 7.755 1.699 2.926 3.399 5.851 5.103 8.774 1.874 3.213 3.753 6.424 5.63 9.636 1.079 1.845 2.151 3.692 3.239 5.532 1.209 2.044 2.422 4.084 3.653 6.115.369.607.788 1.187 1.21 1.759.283.382.633.708 1.046.957.426.257.885.338 1.369.229.25-.057.495-.139.737-.223l.89-.33c3.237-1.107 6.473-2.214 9.711-3.317 2.526-.86 5.055-1.716 7.583-2.571 2.509-.851 5.02-1.698 7.53-2.545l7.474-2.524c2.548-.861 5.095-1.722 7.642-2.585 3.126-1.061 6.251-2.126 9.379-3.185 3.015-1.02 6.033-2.034 9.049-3.052.185-.062.389-.088.542-.291l.019-.439c.001-6.255-.001-12.511.006-18.766 0-.334-.089-.604-.289-.873-.948-1.269-1.877-2.551-2.812-3.828zM123.43 17.111c-.702-.889-1.596-1.171-2.692-.885-.477.125-.967.204-1.453.293-1.594.292-3.19.579-4.784.868-2.334.424-4.667.852-7.001 1.272-1.848.332-3.697.659-5.546.983l-7.418 1.298c-.311.054-.625.108-.925.204-.437.14-.563.414-.363.825.163.336.366.657.586.959 1.534 2.114 3.075 4.223 4.616 6.333 2.124 2.909 4.249 5.817 6.374 8.724 1.798 2.46 3.598 4.92 5.397 7.379 1.414 1.932 2.828 3.864 4.244 5.795l.279.338 12.271-3.033.029-.636c.001-8.511-.001-17.022.006-25.534 0-.376-.091-.678-.328-.976-1.032-1.303-2.045-2.621-3.066-3.933l-.226-.274zM126.731 58.352c-1.856.446-3.719.87-5.62 1.373.201.357 5.415 7.395 5.718 7.729l.19.105.021-.429.001-2.963c.001-1.719.005-3.438.001-5.157 0-.209.059-.434-.085-.646l-.226-.012z"></path>
	</g>
	<g id="nodejs" viewBox="0 0 128 128">
		<path fill="#83CD29" d="M114.325 80.749c-.29 0-.578-.076-.832-.224l-2.65-1.568c-.396-.221-.203-.3-.072-.345.528-.184.635-.227 1.198-.545.059-.033.136-.021.197.015l2.035 1.209c.074.041.179.041.246 0l7.937-4.581c.075-.042.122-.127.122-.215v-9.16c0-.09-.047-.173-.123-.219l-7.934-4.577c-.074-.042-.171-.042-.245 0l-7.933 4.578c-.076.045-.125.131-.125.218v9.16c0 .088.049.171.125.212l2.174 1.257c1.18.589 1.903-.105 1.903-.803v-9.045c0-.127.103-.228.23-.228h1.007c.125 0 .229.101.229.228v9.045c0 1.574-.857 2.477-2.35 2.477-.459 0-.82 0-1.828-.496l-2.081-1.198c-.515-.298-.832-.854-.832-1.448v-9.16c0-.595.317-1.15.832-1.446l7.937-4.587c.502-.283 1.169-.283 1.667 0l7.937 4.587c.514.297.833.852.833 1.446v9.16c0 .595-.319 1.148-.833 1.448l-7.937 4.582c-.252.147-.539.223-.834.223M116.778 74.438c-3.475 0-4.202-1.595-4.202-2.932 0-.126.103-.229.23-.229h1.026c.115 0 .21.082.228.194.154 1.045.617 1.572 2.718 1.572 1.671 0 2.383-.378 2.383-1.266 0-.512-.202-.891-2.8-1.146-2.172-.215-3.515-.694-3.515-2.433 0-1.601 1.35-2.557 3.612-2.557 2.543 0 3.801.883 3.96 2.777.006.064-.017.127-.06.176-.044.045-.104.073-.168.073h-1.031c-.107 0-.201-.075-.223-.179-.248-1.1-.848-1.451-2.479-1.451-1.825 0-2.037.637-2.037 1.112 0 .577.25.745 2.715 1.071 2.439.323 3.598.779 3.598 2.494.001 1.733-1.441 2.724-3.955 2.724"></path><path fill="#404137" d="M97.982 68.43c.313-.183.506-.517.506-.88v-2.354c0-.362-.192-.696-.506-.879l-8.364-4.856c-.315-.183-.703-.184-1.019-.002l-8.416 4.859c-.314.182-.508.517-.508.88v9.716c0 .365.196.703.514.884l8.363 4.765c.308.177.686.178.997.006l5.058-2.812c.161-.09.261-.258.262-.44.001-.184-.097-.354-.256-.445l-8.468-4.86c-.159-.091-.256-.259-.256-.44v-3.046c0-.182.097-.349.254-.439l2.637-1.52c.156-.091.35-.091.507 0l2.637 1.52c.158.091.255.258.255.439v2.396c0 .183.097.351.254.441.158.091.352.091.51-.001l5.039-2.932"></path><path fill="#83CD29" d="M88.984 67.974c.061-.034.135-.034.195 0l1.615.933c.06.035.097.1.097.169v1.865c0 .07-.037.134-.097.169l-1.615.932c-.06.035-.135.035-.195 0l-1.614-.932c-.061-.035-.098-.099-.098-.169v-1.865c0-.069.037-.134.098-.169l1.614-.933"></path><path fill="#404137" d="M67.083 71.854c0 .09-.048.174-.127.22l-2.89 1.666c-.079.046-.176.046-.254 0l-2.89-1.666c-.079-.046-.127-.13-.127-.22v-3.338c0-.09.049-.175.127-.221l2.89-1.668c.079-.047.176-.047.255 0l2.891 1.668c.078.046.126.131.126.221v3.338zm.781-24.716c-.157-.087-.349-.085-.505.006-.155.092-.251.258-.251.438v12.915c0 .126-.068.244-.177.308-.11.063-.246.063-.356 0l-2.108-1.215c-.314-.181-.701-.181-1.015 0l-8.418 4.858c-.315.182-.509.518-.509.881v9.719c0 .363.194.698.508.881l8.418 4.861c.314.182.702.182 1.017 0l8.42-4.861c.314-.183.508-.518.508-.881v-24.227c0-.368-.2-.708-.521-.888l-5.011-2.795"></path><path fill="#83CD29" d="M38.238 59.407c.314-.182.702-.182 1.016 0l8.418 4.857c.314.182.508.518.508.881v9.722c0 .363-.194.699-.508.881l-8.417 4.861c-.314.181-.702.181-1.017 0l-8.415-4.861c-.314-.182-.508-.518-.508-.881v-9.723c0-.362.194-.698.508-.88l8.415-4.857"></path><path fill="#404137" d="M22.93 65.064c0-.366-.192-.702-.508-.883l-8.415-4.843c-.144-.084-.303-.127-.464-.133h-.087c-.16.006-.32.049-.464.133l-8.416 4.843c-.313.181-.509.517-.509.883l.018 13.04c0 .182.095.351.254.439.156.094.349.094.505 0l5-2.864c.316-.188.509-.519.509-.882v-6.092c0-.364.192-.699.507-.881l2.13-1.226c.158-.093.332-.137.508-.137.174 0 .352.044.507.137l2.128 1.226c.315.182.509.517.509.881v6.092c0 .363.195.696.509.882l5 2.864c.157.094.353.094.508 0 .155-.089.252-.258.252-.439l.019-13.04"></path>
	</g>
	<g id="php">
		<path fill="#6181B6" d="M64 33.039c-33.74 0-61.094 13.862-61.094 30.961s27.354 30.961 61.094 30.961 61.094-13.862 61.094-30.961-27.354-30.961-61.094-30.961zm-15.897 36.993c-1.458 1.364-3.077 1.927-4.86 2.507-1.783.581-4.052.461-6.811.461h-6.253l-1.733 10h-7.301l6.515-34h14.04c4.224 0 7.305 1.215 9.242 3.432 1.937 2.217 2.519 5.364 1.747 9.337-.319 1.637-.856 3.159-1.614 4.515-.759 1.357-1.75 2.624-2.972 3.748zm21.311 2.968l2.881-14.42c.328-1.688.208-2.942-.361-3.555-.57-.614-1.782-1.025-3.635-1.025h-5.79l-3.731 19h-7.244l6.515-33h7.244l-1.732 9h6.453c4.061 0 6.861.815 8.402 2.231s2.003 3.356 1.387 6.528l-3.031 15.241h-7.358zm40.259-11.178c-.318 1.637-.856 3.133-1.613 4.488-.758 1.357-1.748 2.598-2.971 3.722-1.458 1.364-3.078 1.927-4.86 2.507-1.782.581-4.053.461-6.812.461h-6.253l-1.732 10h-7.301l6.514-34h14.041c4.224 0 7.305 1.215 9.241 3.432 1.935 2.217 2.518 5.418 1.746 9.39zM95.919 54h-5.001l-2.727 14h4.442c2.942 0 5.136-.29 6.576-1.4 1.442-1.108 2.413-2.828 2.918-5.421.484-2.491.264-4.434-.66-5.458-.925-1.024-2.774-1.721-5.548-1.721zM38.934 54h-5.002l-2.727 14h4.441c2.943 0 5.136-.29 6.577-1.4 1.441-1.108 2.413-2.828 2.917-5.421.484-2.491.264-4.434-.66-5.458s-2.772-1.721-5.546-1.721z"></path>

	</g>
	<g id="sass" viewBox="0 0 128 128">
		<path fill-rule="evenodd" clip-rule="evenodd" fill="#CB6699" d="M1.219 56.156c0 .703.207 1.167.323 1.618.756 2.933 2.381 5.45 4.309 7.746 2.746 3.272 6.109 5.906 9.554 8.383 2.988 2.148 6.037 4.248 9.037 6.38.515.366 1.002.787 1.561 1.236-.481.26-.881.489-1.297.7-3.959 2.008-7.768 4.259-11.279 6.986-2.116 1.644-4.162 3.391-5.607 5.674-2.325 3.672-3.148 7.584-1.415 11.761.506 1.22 1.278 2.274 2.367 3.053.353.252.749.502 1.162.6 1.058.249 2.136.412 3.207.609l3.033-.002c3.354-.299 6.407-1.448 9.166-3.352 4.312-2.976 7.217-6.966 8.466-12.087.908-3.722.945-7.448-.125-11.153-.099-.344-.224-.681-.354-1.014-.13-.333-.283-.657-.463-1.072l6.876-3.954.103.088c-.125.409-.258.817-.371 1.23-.817 2.984-1.36 6.02-1.165 9.117.208 3.3 1.129 6.389 3.061 9.146 1.562 2.23 5.284 2.313 6.944.075.589-.795 1.16-1.626 1.589-2.513 1.121-2.315 2.159-4.671 3.23-7.011l.187-.428c-.077 1.108-.167 2.081-.208 3.055-.064 1.521.025 3.033.545 4.48.445 1.238 1.202 2.163 2.62 2.326.97.111 1.743-.333 2.456-.896 1.114-.879 2.019-1.965 2.691-3.199 1.901-3.491 3.853-6.961 5.576-10.54 1.864-3.871 3.494-7.855 5.225-11.792l.286-.698c.409 1.607.694 3.181 1.219 4.671.61 1.729 1.365 3.417 2.187 5.058.389.775.344 1.278-.195 1.928-2.256 2.72-4.473 5.473-6.692 8.223-.491.607-.98 1.225-1.389 1.888-.247.403-.411.894-.48 1.364-.133.898.422 1.764 1.383 1.971.878.189 1.813.259 2.708.193 3.097-.228 5.909-1.315 8.395-3.157 3.221-2.386 4.255-5.642 3.475-9.501-.211-1.047-.584-2.065-.947-3.074-.163-.455-.174-.774.123-1.198 2.575-3.677 4.775-7.578 6.821-11.569.081-.157.164-.314.306-.482.663 3.45 1.661 6.775 3.449 9.792-.912.879-1.815 1.676-2.632 2.554-1.799 1.934-3.359 4.034-4.173 6.595-.35 1.104-.619 2.226-.463 3.405.242 1.831 1.742 3.021 3.543 2.604 3.854-.892 7.181-2.708 9.612-5.925 1.636-2.166 1.785-4.582 1.1-7.113-.188-.688-.411-1.365-.651-2.154.951-.295 1.878-.649 2.837-.868 4.979-1.136 9.904-.938 14.702.86 2.801 1.05 5.064 2.807 6.406 5.571 1.639 3.379.733 6.585-2.452 8.721-.297.199-.637.356-.883.605-.151.153-.242.459-.205.67.021.123.346.277.533.275 1.047-.008 1.896-.557 2.711-1.121 2.042-1.413 3.532-3.314 3.853-5.817l.063-.188-.077-1.63c-.031-.094.023-.187.016-.258-.434-3.645-2.381-6.472-5.213-8.688-3.28-2.565-7.153-3.621-11.249-3.788-3.338-.136-6.619.36-9.765 1.503-.897.325-1.786.71-2.688 1.073-.121-.219-.251-.429-.358-.646-.926-1.896-2.048-3.708-2.296-5.882-.176-1.544-.392-3.086-.025-4.613.353-1.469.813-2.913 1.246-4.362.223-.746.066-1.164-.646-1.5-.248-.117-.518-.219-.786-.258-1.75-.254-3.476-.109-5.171.384-.6.175-1.036.511-1.169 1.175-.076.381-.231.746-.339 1.122-.443 1.563-.757 3.156-1.473 4.645-1.794 3.735-3.842 7.329-5.938 10.897-.227.385-.466.763-.752 1.23-.736-1.54-1.521-2.922-1.759-4.542-.269-1.832-.481-3.661-.025-5.479.339-1.356.782-2.687 1.19-4.025.193-.636.104-.97-.472-1.305-.291-.169-.62-.319-.948-.368-1.815-.269-3.603-.128-5.354.438-.543.176-.828.527-.994 1.087-.488 1.652-.904 3.344-1.589 4.915-2.774 6.36-5.628 12.687-8.479 19.013-.595 1.321-1.292 2.596-1.963 3.882-.17.326-.418.613-.63.919-.17-.201-.236-.339-.235-.477.005-.813-.092-1.65.063-2.436.469-2.378 1.009-4.743 1.578-7.099.47-1.946 1.017-3.874 1.538-5.807.175-.647.178-1.252-.287-1.796-.781-.911-2.413-1.111-3.381-.409l-.428.242.083-.69c.204-1.479.245-2.953-.161-4.41-.506-1.816-1.802-2.861-3.686-2.803-.878.027-1.8.177-2.613.497-3.419 1.34-6.048 3.713-8.286 6.568-.203.259-.471.495-.757.654-2.893 1.604-5.795 3.188-8.696 4.778l-3.229 1.769c-.866-.826-1.653-1.683-2.546-2.41-2.727-2.224-5.498-4.393-8.244-6.592-2.434-1.949-4.792-3.979-6.596-6.56-1.342-1.92-2.207-4.021-2.29-6.395-.105-3.025.753-5.789 2.293-8.362 1.97-3.292 4.657-5.934 7.611-8.327 3.125-2.53 6.505-4.678 10.008-6.639 4.901-2.743 9.942-5.171 15.347-6.774 5.542-1.644 11.165-2.585 16.965-1.929 2.28.258 4.494.78 6.527 1.895 1.557.853 2.834 1.97 3.428 3.716.586 1.718.568 3.459.162 5.204-.825 3.534-2.76 6.447-5.195 9.05-3.994 4.267-8.866 7.172-14.351 9.091-3.165 1.107-6.421 1.802-9.765 2.083-2.729.229-5.401-.013-7.985-.962-1.711-.629-3.201-1.591-4.399-2.987-.214-.25-.488-.521-.887-.287-.391.23-.46.602-.329.979.219.626.421 1.278.762 1.838.857 1.405 2.107 2.424 3.483 3.298 2.643 1.681 5.597 2.246 8.66 2.377 4.648.201 9.183-.493 13.654-1.74 6.383-1.78 11.933-4.924 16.384-9.884 3.706-4.13 6.353-8.791 6.92-14.419.277-2.747-.018-5.438-1.304-7.944-1.395-2.715-3.613-4.734-6.265-6.125-3.862-2.025-8.03-3.204-12.332-3.204h-4.31c-5.21 0-10.247 1.493-15.143 3.274-3.706 1.349-7.34 2.941-10.868 4.703-7.683 3.839-14.838 8.468-20.715 14.833-2.928 3.171-5.407 6.67-6.833 10.79-.417 1.206-.813 2.499-1.111 3.746m27.839 36.013c-.333 4.459-2.354 8.074-5.657 11.002-1.858 1.646-3.989 2.818-6.471 3.23-.9.149-1.821.185-2.694-.188-1.245-.532-1.524-1.637-1.548-2.814-.037-1.876.62-3.572 1.521-5.186 1.176-2.104 2.9-3.708 4.741-5.206 2.9-2.361 6.046-4.359 9.268-6.245l.243-.1c.498 1.84.735 3.657.597 5.507zm25.158-19.379c-.235 1.424-.529 2.849-.945 4.229-1.438 4.777-3.285 9.406-5.282 13.973-.369.845-.906 1.616-1.373 2.417-.072.124-.179.231-.283.334-.578.571-1.126.541-1.418-.206-.34-.868-.549-1.797-.729-2.716-.121-.617-.092-1.265-.13-1.897.039-4.494 1.41-8.578 3.736-12.38.959-1.568 2.003-3.062 3.598-4.054.49-.305 1.04-.55 1.595-.706.85-.239 1.372.154 1.231 1.006zm17.164 21.868l6.169-7.203c.257 2.675-4.29 8.015-6.169 7.203zm19.703-4.847c-.436.25-.911.43-1.358.661-.409.212-.544-.002-.556-.354-.008-.239.027-.489.093-.721.833-2.938 2.366-5.446 4.647-7.486l.16-.082c1.085 3.035-.169 6.368-2.986 7.982z"></path>
	</g>
	<g id="wordpress" viewBox="0 0 128 128">
		<path fill-rule="evenodd" clip-rule="evenodd" fill="#494949" d="M64.094 126.224c34.275-.052 62.021-27.933 62.021-62.325 0-33.833-27.618-61.697-60.613-62.286-34.652-.618-63.608 27.5-63.617 61.597-.01 35.079 27.612 63.064 62.209 63.014zm-.101-121.594c32.907-.011 59.126 26.725 59.116 60.28-.011 31.679-26.925 58.18-59.092 58.187-32.771.007-59.125-26.563-59.124-59.608.002-32.193 26.766-58.848 59.1-58.859zM39.157 35.896c.538 1.793-.968 2.417-2.569 2.542-1.685.13-3.369.257-5.325.406 6.456 19.234 12.815 38.183 19.325 57.573.464-.759.655-.973.739-1.223 3.574-10.682 7.168-21.357 10.651-32.069.318-.977.16-2.271-.188-3.275-1.843-5.32-4.051-10.524-5.667-15.908-1.105-3.686-2.571-6.071-6.928-5.644-.742.073-1.648-1.524-2.479-2.349 1.005-.6 2.003-1.704 3.017-1.719 8.872-.135 17.747-.135 26.618.008 1.018.017 2.016 1.15 3.021 1.765-.88.804-1.639 2.01-2.668 2.321-1.651.498-3.482.404-5.458.58 6.463 19.225 12.793 38.057 19.349 57.56 2.931-9.736 5.658-18.676 8.31-27.639 2.366-8.001.956-15.473-3.322-22.52-1.286-2.119-2.866-4.175-3.595-6.486-.828-2.629-1.516-5.622-1.077-8.259.745-4.469 4.174-6.688 8.814-7.113-25.392-23.566-65.294-15.13-79.997 10.475 5.66-.261 11.064-.604 16.472-.678 1.022-.013 2.717.851 2.957 1.652zM49.274 113.867c-.118.345-.125.729-.218 1.302 10.943 3.034 21.675 2.815 32.659-.886l-16.78-45.96c-5.37 15.611-10.52 30.575-15.661 45.544zM40.818 111.789l-25.281-69.35c-11.405 22.278-2.729 56.268 25.281 69.35zM117.246 67.227c.802-10.534-2.832-25.119-5.97-27.125-.35 3.875-.106 8.186-1.218 12.114-2.617 9.255-5.817 18.349-8.899 27.468-3.35 9.912-6.832 19.779-10.257 29.666 16.092-9.539 24.935-23.618 26.344-42.123z"></path>
	</g>
	<g id="google">
		<path class="cls-1" d="M44.59,4.21a63.28,63.28,0,0,0,4.33,120.9,67.6,67.6,0,0,0,32.36.35A57.13,57.13,0,0,0,107.18,112a57.44,57.44,0,0,0,16-26.26,74.33,74.33,0,0,0,1.61-33.58H65.27c0,8.23,0,16.46,0,24.69H99.74A29.72,29.72,0,0,1,87.08,96.37a36.16,36.16,0,0,1-13.93,5.5,41.29,41.29,0,0,1-15.1,0A37.16,37.16,0,0,1,44,95.74a39.3,39.3,0,0,1-14.5-19.42,38.31,38.31,0,0,1,0-24.63,39.25,39.25,0,0,1,9.18-14.91A37.17,37.17,0,0,1,76.13,27a34.28,34.28,0,0,1,13.64,8q5.83-5.8,11.64-11.63c2-2.09,4.18-4.08,6.15-6.22A61.22,61.22,0,0,0,87.2,4.59,64,64,0,0,0,44.59,4.21Z"/><path class="cls-2" d="M44.59,4.21a64,64,0,0,1,42.61.37A61.22,61.22,0,0,1,107.55,17.2c-2,2.14-4.11,4.14-6.15,6.22Q95.58,29.23,89.77,35a34.28,34.28,0,0,0-13.64-8,37.17,37.17,0,0,0-37.46,9.74,39.25,39.25,0,0,0-9.18,14.91L8.76,35.6A63.53,63.53,0,0,1,44.59,4.21Z"/><path class="cls-3" d="M3.26,51.5a62.93,62.93,0,0,1,5.5-15.9L29.49,51.69a38.31,38.31,0,0,0,0,24.63q-10.36,8-20.73,16.08A63.33,63.33,0,0,1,3.26,51.5Z"/><path class="cls-4" d="M65.27,52.15h59.52a74.33,74.33,0,0,1-1.61,33.58,57.44,57.44,0,0,1-16,26.26c-6.69-5.22-13.41-10.4-20.1-15.62A29.72,29.72,0,0,0,99.74,76.83H65.27C65.26,68.61,65.27,60.38,65.27,52.15Z"/><path class="cls-5" d="M8.75,92.4q10.37-8,20.73-16.08A39.3,39.3,0,0,0,44,95.74a37.16,37.16,0,0,0,14.08,6.08,41.29,41.29,0,0,0,15.1,0,36.16,36.16,0,0,0,13.93-5.5c6.69,5.22,13.41,10.4,20.1,15.62a57.13,57.13,0,0,1-25.9,13.47,67.6,67.6,0,0,1-32.36-.35,63,63,0,0,1-23-11.59A63.73,63.73,0,0,1,8.75,92.4Z"/>
	</g>
	<g id="analytics">
		<rect fill="#f6981c" width="128" height="128" rx="11.3" ry="11.3"></rect>
		<path fill="#fff" d="M128 40.2l-11.6-7.8a13.6 13.6 0 1 0-24.3 4.8l-25 38.2a13.5 13.5 0 0 0-11.9 2.8L38.5 70.2a13.6 13.6 0 1 0-26 3.4L0 85.1V97.5L18.6 80.2a13.6 13.6 0 0 0 15.8-2l16.3 9.4a13.6 13.6 0 1 0 24.1-5.7l24.8-38a13.5 13.5 0 0 0 12-2.4L128 52.6Z" transform="translate(0 -1.5)"/>
		<path fill="#f05620" d="M111.6 40a13.5 13.5 0 0 1-12 2.4l-24.8 38a13.6 13.6 0 1 1-24.1 5.7L34.3 78.2a13.6 13.6 0 0 1-15.8 2L0 97.5V118.2a11.3 11.3 0 0 0 11.3 11.3H116.7A11.3 11.3 0 0 0 128 118.2V52.6Z" transform="translate(0 -1.5)"/>
	</g>
	<g id="vuejs">
		<path d="m-2.3125e-8 8.9337 49.854 0.1586 14.167 24.47 14.432-24.47 49.547-0.1577-63.834 110.14zm126.98 0.6374-24.36 0.0207-38.476 66.052-38.453-66.052-24.749-0.0194 63.211 107.89zm-25.149-0.008-22.745 0.16758l-15.053 24.647-14.817-24.647-22.794-0.1679 37.731 64.476zM25.997 9.3929l23.002 0.0087M25.997 9.3929l23.002 0.0087" fill="none"/><path d="m25.997 9.3929 23.002 0.0087l15.036 24.958 14.983-24.956 22.982-0.0057-37.85 65.655z" fill="#35495e"/><path d="m0.91068 9.5686 25.066-0.1711 38.151 65.658 37.852-65.654 25.11 0.0263-62.966 108.06z" fill="#41b883"/>
	</g>
	<g id="angularjs">
		<path fill="#C4473A" d="M52.864 64h23.28l-12.375-25.877zM63.81 1.026l-59.257 20.854 9.363 77.637 49.957 27.457 50.214-27.828 9.36-77.635-59.637-20.485zm-15.766 73.974l-7.265 18.176-13.581.056 36.608-81.079-.07-.153h-.064l.001-.133.063.133h.14100000000000001l.123-.274v.274h-.124l-.069.153 38.189 81.417-13.074-.287-8.042-18.58-17.173.082"></path>
	</g>
	<g id="bootstrap">
		<path fill="#5B4282" d="M75.701 65.603c-2.334-.768-5.694-.603-10.08-.603h-17.621v23h18.844c2.944 0 5.012-.315 6.203-.535 2.099-.376 3.854-1.104 5.264-1.982 1.409-.876 2.568-2.205 3.478-3.881.908-1.676 1.363-3.637 1.363-5.83 0-2.568-.658-4.54-1.975-6.436-1.316-1.896-3.141-2.965-5.476-3.733zM73.282 55.087c2.317-.688 4.064-1.89 5.239-3.487 1.176-1.598 1.763-3.631 1.763-6.044 0-2.286-.549-4.314-1.646-6.054s-2.662-2.413-4.699-3.056c-2.037-.641-5.53-.446-10.48-.446h-15.459v20h16.587c4.042 0 6.939-.38 8.695-.913zM126 18.625c0-9.182-7.443-16.625-16.625-16.625h-91.75c-9.182 0-16.625 7.443-16.625 16.625v91.75c0 9.182 7.443 16.625 16.625 16.625h91.75c9.182 0 16.625-7.443 16.625-16.625v-91.75zm-35.447 66.12c-1.362 2.773-3.047 4.911-5.052 6.415-2.006 1.504-4.521 2.78-7.544 3.548-3.022.769-6.728 1.292-11.113 1.292h-27.844v-69h27.42c5.264 0 9.485.609 12.665 2.002 3.181 1.395 5.671 3.497 7.474 6.395 1.801 2.898 2.702 5.907 2.702 9.071 0 2.945-.8 5.708-2.397 8.308-1.598 2.602-4.011 4.694-7.237 6.292 4.166 1.222 7.37 3.304 9.61 6.248 2.24 2.945 3.36 6.422 3.36 10.432 0 3.227-.681 6.225-2.044 8.997z"></path>
	</g>
	<g id="slim">
		<path d="M35.12,46.88c1.1.79.73,1.83.74,2.72q0,28.15,0,56.3c0,3.86.19,7.74,0,11.59-.24,4.28,4.46,10.15,10.16,10.16,2.52,0,5,.08,7.57,0a10.31,10.31,0,0,0,7.7-4,11,11,0,0,0,2.41-7.22c0-2.76,0-5.52,0-8.28a6.15,6.15,0,0,1,5.13-5.94A6.35,6.35,0,0,1,76,105.85a9.3,9.3,0,0,1,.58,3.45c.08,2.68,0,5.36,0,8a12.74,12.74,0,0,0,.35,2.54c.94,4.18,5.69,7.9,10.35,7.77,2.21-.06,4.42,0,6.62,0a10.15,10.15,0,0,0,7-2.9,10.5,10.5,0,0,0,3.44-8q0-20.7,0-41.4c0-.82-.31-1.73.35-2.46,4,1.05,6.65,3.88,6.87,7.41.1,1.64,0,3.3,0,4.86-2.67,2-2.89,2.7-1.82,5.65.43,1.18.94,2.33,1.32,3.52.22.69.53,1.12,1.28,1.15s1.26-.37,1.47-1.19a42.07,42.07,0,0,1,1.38-4.48,3.08,3.08,0,0,0-.71-3.64,2.72,2.72,0,0,1-.78-2.11,44.35,44.35,0,0,0-.38-4.67c-.66-4.44-3.34-7.12-7.55-8.38-1.52-.45-1.57-.55-1.06-2.5,1.28,0,2.61,0,3.93,0,7,.11,12.31-6.27,12.25-12.35-.11-11.43-.05-22.87,0-34.3A12.42,12.42,0,0,0,108.73,9.52c-4.18,0-8.36,0-12.54,0a3.64,3.64,0,0,1-3-1.07,23.91,23.91,0,0,0-6.56-4.54,32.55,32.55,0,0,0-9.83-3,36.47,36.47,0,0,0-13.34.28,34,34,0,0,0-19.74,12A33.51,33.51,0,0,0,36.39,29.7c-.18,1.29-.45,2.57-.7,4-1.54,0-3-.06-4.37,0a9.88,9.88,0,0,0-5.5,1.83,10.57,10.57,0,0,0-4.62,9.07c.12,5.67,0,11.35,0,17a10.8,10.8,0,0,1-.32,2.55c-.37,1.48-.72,1.72-2.07,1.72s-1.69-.26-2-1.78a19.05,19.05,0,0,1-.36-3c-.06-1.65,0-3.31,0-5a4.14,4.14,0,0,0-4.36-4.45c-1.18,0-2.37-.06-3.55,0-2.76.16-4.29,1.77-4.31,4.56,0,3.71,0,7.41,0,11.12A10.82,10.82,0,0,0,14.55,77.91a71,71,0,0,0,8.51,0,10.38,10.38,0,0,0,9.11-5.73A10.82,10.82,0,0,0,33.47,67c0-6,0-12,0-18C33.42,47.78,33.76,47,35.12,46.88Z" transform="translate(-4.25 -0.44)" style="fill:#fff"/>
		<path d="M35.12,46.88c-1.36.15-1.7.9-1.69,2.12,0,6,0,12,0,18a10.82,10.82,0,0,1-1.3,5.19,10.38,10.38,0,0,1-9.11,5.73,71,71,0,0,1-8.51,0A10.82,10.82,0,0,1,4.25,67.34c0-3.71,0-7.41,0-11.12,0-2.79,1.55-4.4,4.31-4.56,1.18-.07,2.37,0,3.55,0a4.14,4.14,0,0,1,4.36,4.45c0,1.66,0,3.31,0,5a19.05,19.05,0,0,0,.36,3c.3,1.52.64,1.77,2,1.78s1.7-.24,2.07-1.72a10.8,10.8,0,0,0,.32-2.55c0-5.68.1-11.36,0-17a10.57,10.57,0,0,1,4.62-9.07,9.88,9.88,0,0,1,5.5-1.83c1.41-.08,2.82,0,4.37,0,.25-1.4.52-2.68.7-4a33.51,33.51,0,0,1,7.38-16.54,34,34,0,0,1,19.74-12A36.47,36.47,0,0,1,76.85.92a32.55,32.55,0,0,1,9.83,3,23.91,23.91,0,0,1,6.56,4.54,3.64,3.64,0,0,0,3,1.07c4.18-.06,8.36,0,12.54,0A12.42,12.42,0,0,1,121,21.88c0,11.43-.09,22.87,0,34.3.06,6.07-5.21,12.46-12.25,12.35-1.33,0-2.66,0-3.93,0-.51,2-.46,2,1.06,2.5,4.21,1.26,6.89,3.94,7.55,8.38a44.35,44.35,0,0,1,.38,4.67,2.72,2.72,0,0,0,.78,2.11,3.08,3.08,0,0,1,.71,3.64,42.07,42.07,0,0,0-1.38,4.48c-.22.82-.63,1.23-1.47,1.19s-1.06-.46-1.28-1.15c-.38-1.19-.9-2.34-1.32-3.52-1.07-3-.86-3.62,1.82-5.65,0-1.56.08-3.21,0-4.86-.22-3.53-2.87-6.36-6.87-7.41-.66.73-.35,1.64-.35,2.46q0,20.7,0,41.4a10.5,10.5,0,0,1-3.44,8,10.15,10.15,0,0,1-7,2.9c-2.21,0-4.42,0-6.62,0-4.65.13-9.41-3.59-10.35-7.77a12.74,12.74,0,0,1-.35-2.54c0-2.68,0-5.36,0-8a9.3,9.3,0,0,0-.58-3.45,6.35,6.35,0,0,0-7.19-3.68,6.15,6.15,0,0,0-5.13,5.94c0,2.76,0,5.52,0,8.28a11,11,0,0,1-2.41,7.22,10.31,10.31,0,0,1-7.7,4c-2.52.1-5,0-7.57,0-5.7,0-10.4-5.87-10.16-10.16.22-3.85,0-7.72,0-11.59q0-28.15,0-56.3C35.86,48.71,36.23,47.67,35.12,46.88ZM38.2,44.5v2.76q0,34.17,0,68.35A9.77,9.77,0,0,0,39.55,121c1.56,2.46,3.67,4.06,6.75,4,2.13,0,4.26-.07,6.38,0A8.23,8.23,0,0,0,61,116.69c0-2.6,0-5.2,0-7.8,0-5,2.75-8.3,7.59-9.33,3-.64,7.81,1.23,9.24,4.29A10.59,10.59,0,0,1,79,108.13c.09,3.29-.28,6.6.31,9.89.77,4.3,3.74,6.93,8.14,7,2,0,4.11-.1,6.15,0,4.4.27,8.29-4,8.26-8.16-.11-15.53,0-31.06-.05-46.59a16.16,16.16,0,0,0-.2-1.74c-4.25-.07-8.43.29-12.37-1.49a22.65,22.65,0,0,1-9.48-7.89,20.31,20.31,0,0,1-3.48-11.73h2.45c.16,1.27.26,2.43.46,3.58A17.88,17.88,0,0,0,86,62.19a15.52,15.52,0,0,0,8.56,3.61c3.92.26,7.85.35,11.77.38a16,16,0,0,0,4.88-.55,9.72,9.72,0,0,0,7.09-9.49c0-11.43-.09-22.86,0-34.29,0-5.12-4.66-9.89-9.77-9.72-3.94.13-7.88,0-11.82,0a15.78,15.78,0,0,0-3.94.49c-7.28,2-12,6.61-13.54,14.12-.29,1.36-.43,2.76-.65,4.18H76.12c.49-10.34,5.58-17.14,15.26-20.85-10.15-7.85-21-8.64-32.51-4.88-13.41,5.95-20.19,16.3-20.46,31.07-2.32,0-4.6,0-6.87,0a7.48,7.48,0,0,0-5.28,2.23,9.33,9.33,0,0,0-2.71,7c0,6.15,0,12.3,0,18.45a4.28,4.28,0,0,1-4.17,4.5c-2.8.23-4.63-1.12-5.13-4a12.79,12.79,0,0,1-.06-2.12c0-2,0-3.94,0-5.91A2,2,0,0,0,12,54.3c-.94,0-1.89,0-2.84,0-1.86.05-2.2.36-2.22,2.23,0,3.7,0,7.41,0,11.11a6.89,6.89,0,0,0,.47,2.28c1.39,3.69,4.21,5.31,8,5.38,2.29,0,4.57,0,6.86,0a8.27,8.27,0,0,0,8.58-8.59c-.2-5.67-.07-11.35,0-17a11,11,0,0,1,.46-3,2.92,2.92,0,0,1,3-2.2C35.47,44.49,36.65,44.5,38.2,44.5Zm74.08,48.85A12.7,12.7,0,0,0,114,88.69a1.22,1.22,0,0,0-.78-1.53,3,3,0,0,0-2,.17,1.28,1.28,0,0,0-.46,1.64C111.34,90.26,111.72,91.61,112.29,93.35Z" transform="translate(-4.25 -0.44)" style="fill:#7d9943"/>
		<path d="M112.29,93.35c-.57-1.74-.94-3.09-1.46-4.39a1.28,1.28,0,0,1,.46-1.64,3,3,0,0,1,2-.17,1.22,1.22,0,0,1,.78,1.53A12.7,12.7,0,0,1,112.29,93.35Z" transform="translate(-4.25 -0.44)" style="fill:#fff"/>
		<path d="M112.77,25.78a21.22,21.22,0,0,1-.52-2.43c-.28-3-2.28-4.44-5.58-5-.84-.15-1.69-.26-2.52-.43a1.08,1.08,0,0,1-.92-1.39c.11-.65.61-.84,1.21-.88a12,12,0,0,1,7,1.64,7.07,7.07,0,0,1,3.4,5.35c.07.46.05.94.11,1.41C115.12,25.85,115,26,112.77,25.78Z" transform="translate(-4.25 -0.44)" style="fill:#7d9943"/>
		<path d="M54.91,34.47a3.5,3.5,0,1,1,3.55-3.6A3.5,3.5,0,0,1,54.91,34.47Z" transform="translate(-4.25 -0.44)" style="fill:#7d9943"/>
	</g>
	<g id="apache">
		<path fill="#DCDDDE" stroke="#D9D9D9" stroke-width="0.5956" d="M126.8,61.4c-10.2-1.4-47.7-3.3-64.4-6 c-13.5-2.2-26.6-6.2-39.2-10.4c-3.2-1.1-9-3.3-12.7-5.3c-2.3-1.8-7.9-4.4-9.5-6.9c24.3,11.6,34.1,14.7,62.7,20.5 C75.3,55.6,117.4,59,126.8,61.4L126.8,61.4z"></path><path fill="#231F20" stroke="#231F20" stroke-width="0.5956" d="M126.8,58.7c-10.2-1.4-47.7-3.3-64.4-6 c-13.5-2.2-26.6-6.2-39.2-10.4c-3.2-1.1-9-3.3-12.7-5.3c-2.3-1.8-7.9-4.4-9.5-6.9c24.3,11.6,34.1,14.7,62.7,20.5 C75.4,52.9,117.5,56.3,126.8,58.7L126.8,58.7z"></path><path fill="#231F20" d="M28.3,91.4h-5.4l-1.4-4.1H14l-1.4,4.1H7.4l7.4-20.2h6L28.3,91.4z M20.2,83.6l-2.5-7.2l-2.5,7.2H20.2z"></path><path fill="#231F20" d="M46.7,83.6c0,1.3-0.2,2.4-0.6,3.4c-0.4,1-0.9,1.9-1.5,2.5c-0.6,0.7-1.4,1.2-2.2,1.6 c-0.8,0.4-1.7,0.5-2.6,0.5c-0.9,0-1.6-0.1-2.2-0.3c-0.6-0.2-1.2-0.4-1.9-0.8v6.3h-4.9V76.2h4.9v1.6c0.7-0.6,1.5-1.1,2.3-1.4 c0.8-0.4,1.7-0.6,2.7-0.6c1.9,0,3.4,0.7,4.4,2.1C46.2,79.2,46.7,81.1,46.7,83.6z M41.7,83.7c0-1.5-0.3-2.5-0.8-3.2 c-0.5-0.7-1.3-1-2.4-1c-0.5,0-0.9,0.1-1.4,0.2c-0.5,0.1-0.9,0.3-1.4,0.6v7.6c0.3,0.1,0.7,0.2,1,0.2c0.4,0,0.7,0.1,1.1,0.1 c1.3,0,2.2-0.4,2.9-1.1C41.4,86.3,41.7,85.2,41.7,83.7z"></path><path fill="#231F20" d="M59.5,89.8c-0.3,0.2-0.6,0.4-1,0.7c-0.4,0.3-0.8,0.5-1.1,0.7c-0.5,0.2-1,0.4-1.5,0.5 c-0.5,0.1-1.1,0.2-1.7,0.2c-1.4,0-2.7-0.4-3.6-1.3c-1-0.9-1.5-2-1.5-3.4c0-1.1,0.2-2,0.7-2.7c0.5-0.7,1.2-1.3,2.1-1.7 c0.9-0.4,2-0.7,3.4-0.9c1.3-0.2,2.7-0.3,4.2-0.4v-0.1c0-0.8-0.3-1.4-1-1.7s-1.7-0.5-3-0.5c-0.8,0-1.7,0.1-2.6,0.4 c-0.9,0.3-1.6,0.5-2,0.7h-0.4v-3.7c0.5-0.1,1.4-0.3,2.5-0.5c1.2-0.2,2.3-0.3,3.5-0.3c2.8,0,4.8,0.4,6,1.3s1.8,2.2,1.8,4v10.3h-4.8 V89.8z M59.5,87.4v-3.2c-0.7,0.1-1.4,0.1-2.1,0.2c-0.8,0.1-1.3,0.2-1.7,0.3c-0.5,0.2-0.9,0.4-1.1,0.7c-0.3,0.3-0.4,0.7-0.4,1.2 c0,0.3,0,0.6,0.1,0.8c0.1,0.2,0.2,0.4,0.4,0.6c0.2,0.2,0.5,0.3,0.7,0.4c0.3,0.1,0.7,0.1,1.4,0.1c0.5,0,1-0.1,1.5-0.3 C58.6,88,59.1,87.7,59.5,87.4z"></path><path fill="#231F20" d="M76.7,91.8c-1.3,0-2.5-0.2-3.6-0.5c-1.1-0.3-2-0.8-2.9-1.5c-0.8-0.7-1.4-1.5-1.9-2.5 c-0.4-1-0.7-2.2-0.7-3.5c0-1.4,0.2-2.6,0.7-3.7s1.1-1.9,2-2.6c0.8-0.6,1.8-1.1,2.8-1.4c1.1-0.3,2.2-0.4,3.3-0.4c1,0,2,0.1,2.9,0.3 c0.9,0.2,1.7,0.5,2.4,0.9v4.2h-0.7c-0.2-0.2-0.4-0.4-0.7-0.6c-0.3-0.2-0.6-0.4-1-0.6c-0.4-0.2-0.8-0.4-1.2-0.5 c-0.4-0.1-1-0.2-1.5-0.2c-1.3,0-2.3,0.4-3,1.2c-0.7,0.8-1,1.9-1,3.4c0,1.5,0.4,2.6,1.1,3.3c0.7,0.8,1.7,1.1,3,1.1 c0.6,0,1.2-0.1,1.7-0.2c0.5-0.1,0.9-0.3,1.2-0.5c0.3-0.2,0.6-0.4,0.8-0.6c0.2-0.2,0.5-0.4,0.6-0.6h0.7v4.2 c-0.8,0.4-1.6,0.6-2.4,0.9C78.6,91.7,77.7,91.8,76.7,91.8z"></path><path fill="#231F20" d="M100.3,91.4h-4.9v-7.5c0-0.6,0-1.2-0.1-1.8s-0.2-1.1-0.3-1.3c-0.2-0.3-0.4-0.6-0.8-0.7 c-0.3-0.2-0.8-0.2-1.5-0.2c-0.4,0-0.9,0.1-1.3,0.2C91,80,90.5,80.3,90,80.6v10.8h-4.9V70.3H90v7.5c0.9-0.7,1.7-1.2,2.5-1.6 c0.8-0.4,1.7-0.5,2.7-0.5c1.6,0,2.9,0.5,3.8,1.4c0.9,1,1.4,2.4,1.4,4.3V91.4z"></path><path fill="#231F20" d="M119.8,84.7h-11.2c0.1,1.2,0.5,2.1,1.4,2.7c0.8,0.6,2.1,0.9,3.7,0.9c1,0,2-0.2,3-0.6 c1-0.4,1.7-0.8,2.3-1.2h0.5v3.9c-1.1,0.4-2.1,0.8-3.1,1c-1,0.2-2.1,0.3-3.2,0.3c-3,0-5.4-0.7-7-2.1c-1.6-1.4-2.4-3.3-2.4-5.9 c0-2.5,0.8-4.5,2.3-6c1.5-1.5,3.6-2.2,6.3-2.2c2.5,0,4.3,0.6,5.6,1.9c1.2,1.2,1.9,3,1.9,5.4V84.7z M115,81.8c0-1-0.3-1.8-0.8-2.3 c-0.5-0.5-1.2-0.8-2.2-0.8c-0.9,0-1.7,0.2-2.3,0.7c-0.6,0.5-0.9,1.3-1,2.3H115z"></path>
	</g>
	<g id="mysql">
		<path fill="#00618A" d="M2.001 90.458h4.108v-16.223l6.36 14.143c.75 1.712 1.777 2.317 3.792 2.317s3.003-.605 3.753-2.317l6.36-14.143v16.223h4.108v-16.196c0-1.58-.632-2.345-1.936-2.739-3.121-.974-5.215-.131-6.163 1.976l-6.241 13.958-6.043-13.959c-.909-2.106-3.042-2.949-6.163-1.976-1.304.395-1.936 1.159-1.936 2.739v16.197zM33.899 77.252h4.107v8.938c-.038.485.156 1.625 2.406 1.661 1.148.018 8.862 0 8.934 0v-10.643h4.117c.019 0-.004 14.514-.004 14.574.022 3.58-4.441 4.357-6.499 4.417h-12.972v-2.764c.022 0 12.963.003 12.995-.001 2.645-.279 2.332-1.593 2.331-2.035v-1.078h-8.731c-4.062-.037-6.65-1.81-6.683-3.85-.002-.187.089-9.129-.001-9.219z"></path><path fill="#E48E00" d="M56.63 90.458h11.812c1.383 0 2.727-.289 3.793-.789 1.777-.816 2.646-1.922 2.646-3.372v-3.002c0-1.185-.987-2.292-2.923-3.028-1.027-.396-2.292-.605-3.517-.605h-4.978c-1.659 0-2.449-.5-2.646-1.606-.039-.132-.039-.237-.039-.369v-1.87c0-.105 0-.211.039-.342.197-.843.632-1.08 2.094-1.212l.395-.026h11.733v-2.738h-11.535c-1.659 0-2.528.105-3.318.342-2.449.764-3.517 1.975-3.517 4.082v2.396c0 1.844 2.095 3.424 5.61 3.793.396.025.79.053 1.185.053h4.267c.158 0 .316 0 .435.025 1.304.105 1.856.343 2.252.816.237.237.315.475.315.737v2.397c0 .289-.197.658-.592.974-.355.316-.948.527-1.738.58l-.435.026h-11.338v2.738zM100.511 85.692c0 2.817 2.094 4.397 6.32 4.714.395.026.79.052 1.185.052h10.706v-2.738h-10.784c-2.41 0-3.318-.606-3.318-2.055v-14.168h-4.108v14.195zM77.503 85.834v-9.765c0-2.48 1.742-3.985 5.186-4.46.356-.053.753-.079 1.108-.079h7.799c.396 0 .752.026 1.147.079 3.444.475 5.187 1.979 5.187 4.46v9.765c0 2.014-.74 3.09-2.445 3.792l4.048 3.653h-4.771l-3.274-2.956-3.296.209h-4.395c-.752 0-1.543-.105-2.414-.343-2.613-.712-3.88-2.085-3.88-4.355zm4.434-.237c0 .132.039.265.079.423.237 1.135 1.307 1.768 2.929 1.768h3.732l-3.428-3.095h4.771l2.989 2.7c.552-.295.914-.743 1.041-1.32.039-.132.039-.264.039-.396v-9.368c0-.105 0-.238-.039-.37-.238-1.056-1.307-1.662-2.89-1.662h-6.216c-1.82 0-3.008.792-3.008 2.032v9.288z"></path><path fill="#00618A" d="M122.336 66.952c-2.525-.069-4.454.166-6.104.861-.469.198-1.216.203-1.292.79.257.271.297.674.502 1.006.394.637 1.059 1.491 1.652 1.938.647.489 1.315 1.013 2.011 1.437 1.235.754 2.615 1.184 3.806 1.938.701.446 1.397 1.006 2.082 1.509.339.247.565.634 1.006.789v-.071c-.231-.294-.291-.698-.503-1.006l-.934-.934c-.913-1.212-2.071-2.275-3.304-3.159-.982-.705-3.18-1.658-3.59-2.801l-.072-.071c.696-.079 1.512-.331 2.154-.503 1.08-.29 2.045-.215 3.16-.503l1.508-.432v-.286c-.563-.578-.966-1.344-1.58-1.867-1.607-1.369-3.363-2.737-5.17-3.879-1.002-.632-2.241-1.043-3.304-1.579-.356-.181-.984-.274-1.221-.575-.559-.711-.862-1.612-1.293-2.441-.9-1.735-1.786-3.631-2.585-5.458-.544-1.245-.9-2.473-1.579-3.59-3.261-5.361-6.771-8.597-12.208-11.777-1.157-.677-2.55-.943-4.021-1.292l-2.37-.144c-.481-.201-.983-.791-1.436-1.077-1.802-1.138-6.422-3.613-7.756-.358-.842 2.054 1.26 4.058 2.011 5.099.527.73 1.203 1.548 1.58 2.369.248.54.29 1.081.503 1.652.521 1.406.976 2.937 1.651 4.236.341.658.718 1.351 1.149 1.939.264.36.718.52.789 1.077-.443.62-.469 1.584-.718 2.369-1.122 3.539-.699 7.938.934 10.557.501.805 1.681 2.529 3.303 1.867 1.419-.578 1.103-2.369 1.509-3.95.092-.357.035-.621.215-.861v.072l1.293 2.585c.957 1.541 2.654 3.15 4.093 4.237.746.563 1.334 1.538 2.298 1.867v-.073h-.071c-.188-.291-.479-.411-.719-.646-.562-.551-1.187-1.235-1.651-1.867-1.309-1.776-2.465-3.721-3.519-5.745-.503-.966-.94-2.032-1.364-3.016-.164-.379-.162-.953-.502-1.148-.466.72-1.149 1.303-1.509 2.154-.574 1.36-.648 3.019-.861 4.739l-.144.071c-1.001-.241-1.352-1.271-1.724-2.154-.94-2.233-1.115-5.83-.287-8.401.214-.666 1.181-2.761.789-3.376-.187-.613-.804-.967-1.148-1.437-.427-.579-.854-1.341-1.149-2.011-.77-1.741-1.129-3.696-1.938-5.457-.388-.842-1.042-1.693-1.58-2.441-.595-.83-1.262-1.44-1.724-2.442-.164-.356-.387-.927-.144-1.293.077-.247.188-.35.432-.431.416-.321 1.576.107 2.01.287 1.152.479 2.113.934 3.089 1.58.468.311.941.911 1.508 1.077h.646c1.011.232 2.144.071 3.088.358 1.67.508 3.166 1.297 4.524 2.155 4.139 2.614 7.522 6.334 9.838 10.772.372.715.534 1.396.861 2.154.662 1.528 1.496 3.101 2.154 4.596.657 1.491 1.298 2.996 2.227 4.237.488.652 2.374 1.002 3.231 1.364.601.254 1.585.519 2.154.861 1.087.656 2.141 1.437 3.16 2.155.509.362 2.076 1.149 2.154 1.798zM90.237 39.593c-.526-.01-.899.058-1.293.144v.071h.072c.251.517.694.849 1.005 1.293l.719 1.508.071-.071c.445-.313.648-.814.646-1.58-.179-.188-.205-.423-.359-.646-.204-.3-.602-.468-.861-.719z"></path>
	</g>
</svg>