<?xml version="1.0" standalone="no"?>
<!DOCTYPE svg PUBLIC "-//W3C//DTD SVG 20010904//EN"
 "http://www.w3.org/TR/2001/REC-SVG-20010904/DTD/svg10.dtd">
<svg version="1.0" xmlns="http://www.w3.org/2000/svg"
 width="230.000000pt" height="230.000000pt" viewBox="0 0 230.000000 230.000000"
 preserveAspectRatio="xMidYMid meet">
<metadata>
Created by potrace 1.11, written by Peter Selinger 2001-2013
</metadata>
<g transform="translate(0.000000,230.000000) scale(0.100000,-0.100000)"
fill="#000000" stroke="none">
<path d="M1447 1368 c-253 -494 -358 -710 -355 -726 2 -11 13 -17 28 -17 23 0
46 41 272 490 136 270 247 500 247 513 1 17 -5 22 -23 22 -22 0 -40 -30 -169
-282z"/>
<path d="M956 1339 c-50 -12 -102 -51 -130 -98 l-21 -36 -5 54 c-6 64 -31 90
-56 57 -21 -29 -21 -513 0 -542 12 -15 18 -17 33 -8 16 10 19 32 24 185 5 181
7 190 47 252 37 55 83 80 148 78 41 -1 56 3 61 15 13 34 -40 57 -101 43z"/>
<path d="M312 1179 c-200 -113 -213 -122 -210 -147 3 -24 30 -42 218 -150 118
-67 221 -121 230 -120 8 2 16 13 18 25 4 26 -7 33 -225 154 -84 46 -151 87
-150 91 1 5 85 55 187 112 158 89 185 107 185 128 0 15 -6 24 -20 26 -11 1
-116 -52 -233 -119z"/>
<path d="M1744 1285 c-4 -8 -4 -21 -1 -28 3 -8 84 -58 180 -111 96 -53 182
-102 191 -109 14 -10 -9 -25 -148 -100 -227 -123 -228 -124 -224 -150 2 -12
10 -23 18 -25 16 -2 424 218 449 243 30 29 -2 55 -214 175 -116 66 -218 119
-228 120 -10 0 -20 -7 -23 -15z"/>
</g>
</svg>
